<?xml version="1.0" standalone="no"?>
<!DOCTYPE svg PUBLIC "-//W3C//DTD SVG 20010904//EN"
 "http://www.w3.org/TR/2001/REC-SVG-20010904/DTD/svg10.dtd">
<svg version="1.0" xmlns="http://www.w3.org/2000/svg"
 width="504.000000pt" height="504.000000pt" viewBox="0 0 504.000000 504.000000"
 preserveAspectRatio="xMidYMid meet">
<metadata>
Created by potrace 1.11, written by Peter Selinger 2001-2013
</metadata>
<g transform="translate(0.000000,504.000000) scale(0.100000,-0.100000)"
fill="#000000" stroke="none">
<path d="M90 4334 c0 -467 3 -712 10 -725 7 -13 7 -19 0 -19 -7 0 -10 -564
-10 -1795 l0 -1795 850 0 c714 0 849 2 844 14 -3 7 -37 47 -75 87 -89 93 -123
157 -114 217 8 51 10 51 18 -3 4 -27 3 -35 -3 -25 -5 8 -10 10 -10 4 0 -6 7
-18 16 -25 15 -13 16 -8 12 50 l-4 63 20 -39 c11 -21 19 -44 17 -51 -1 -8 7
-16 18 -19 21 -5 29 -23 11 -23 -5 0 -10 -4 -10 -10 0 -5 3 -9 8 -9 19 3 33
-2 27 -11 -3 -5 -2 -10 4 -10 12 0 34 -65 28 -83 -2 -6 5 -20 15 -29 11 -9 18
-21 15 -25 -2 -4 3 -21 13 -38 l17 -30 492 -3 c416 -2 494 0 507 12 10 11 11
16 1 19 -6 3 7 6 30 6 36 1 41 -1 36 -19 -5 -20 0 -20 376 -20 l381 0 6 27 c4
16 10 33 14 38 4 6 10 28 12 51 6 51 54 133 84 145 13 4 24 15 24 23 0 26 33
86 47 86 13 0 62 -27 73 -40 3 -4 31 -16 62 -29 77 -31 92 -49 79 -96 -8 -28
-7 -37 4 -41 11 -4 11 -12 4 -31 -5 -14 -9 -42 -8 -62 1 -20 -2 -44 -6 -54 -7
-16 19 -17 464 -17 l471 0 0 996 c0 794 -3 994 -13 987 -16 -10 -37 -13 -37
-4 0 3 11 23 25 43 l25 37 0 436 c0 239 -4 435 -8 435 -5 0 -13 -5 -20 -12 -8
-8 -15 -8 -27 2 -12 10 -15 10 -15 -4 0 -9 -4 -16 -10 -16 -5 0 -10 15 -10 34
0 34 0 34 -30 23 -30 -11 -42 -37 -17 -37 6 0 12 -13 13 -30 1 -17 -3 -30 -7
-30 -5 0 -9 -7 -9 -15 0 -9 -9 -15 -21 -15 -14 0 -19 -5 -16 -14 4 -10 -1 -12
-16 -9 -22 4 -22 4 -3 -11 27 -22 33 -20 48 12 8 16 25 31 45 36 17 6 37 20
44 33 11 20 36 35 27 16 -28 -59 -46 -84 -64 -93 -12 -7 -28 -23 -35 -37 -17
-32 -51 -24 -99 23 -20 19 -41 34 -48 34 -7 0 -12 7 -12 15 0 20 7 19 37 -5
33 -26 39 -20 19 18 -19 37 -36 49 -45 33 -5 -7 -16 -9 -27 -4 -17 6 -17 5 -6
-10 18 -21 7 -37 -24 -37 -14 0 -23 4 -20 8 2 4 0 14 -5 22 -8 12 -9 11 -7 -5
2 -14 -3 -21 -19 -23 -12 -2 -27 -10 -33 -18 -17 -20 -30 -17 -30 6 0 14 7 20
23 20 21 1 21 1 3 15 -22 17 -17 67 10 97 15 16 15 18 0 24 -14 5 -16 14 -11
43 7 43 -7 60 -73 86 -62 25 -126 13 -170 -31 -34 -34 -34 -35 -30 -109 2 -41
1 -75 -1 -75 -2 0 -12 6 -20 14 -13 12 -24 12 -61 3 -25 -7 -53 -20 -62 -29
-20 -20 -58 -24 -58 -7 0 6 -7 8 -15 5 -8 -3 -22 -9 -30 -12 -8 -3 -15 -1 -15
6 0 6 5 8 13 4 6 -4 5 1 -4 12 -28 32 -30 58 -9 99 11 22 20 51 20 65 0 40
-36 88 -82 110 l-43 20 2 52 c3 48 2 51 -9 28 -7 -14 -17 -28 -23 -32 -5 -4
-10 -15 -10 -25 0 -10 -6 -17 -13 -15 -26 5 -64 -35 -81 -84 -20 -56 -38 -60
-81 -18 -24 22 -50 91 -50 132 0 10 -9 35 -20 57 -11 22 -20 41 -20 44 0 2 9
-4 20 -14 20 -18 20 -17 20 8 0 28 13 36 26 16 3 -6 0 -15 -7 -20 -7 -4 -11
-11 -7 -14 12 -12 48 30 54 62 3 18 10 33 15 33 5 0 9 4 9 9 0 15 54 68 77 75
16 5 25 2 33 -14 6 -11 17 -20 25 -20 8 0 18 -6 22 -14 5 -8 32 -15 65 -18 49
-4 61 -2 75 15 14 16 15 19 3 15 -8 -3 -26 6 -40 20 -25 24 -25 24 -2 19 31
-7 28 11 -4 23 -41 16 -13 40 45 40 33 0 42 3 31 10 -8 5 -23 7 -32 4 -20 -6
-21 0 -8 31 5 11 9 14 9 8 1 -16 51 -17 51 -2 0 5 4 8 8 5 10 -6 52 38 52 53
0 26 79 24 105 -2 20 -21 39 -22 31 -2 -4 11 2 14 26 11 24 -3 32 1 36 16 3
11 10 17 18 14 9 -4 14 2 14 15 0 11 5 17 10 14 6 -3 10 1 10 9 0 10 -6 13
-15 10 -8 -4 -31 -3 -50 0 -29 6 -35 11 -35 31 0 28 -11 30 -75 15 -26 -6 -44
-5 -52 1 -7 6 -17 8 -23 4 -7 -4 -9 2 -4 20 4 18 1 32 -11 45 -17 19 -17 20 1
21 10 1 36 1 57 -1 21 -1 44 4 52 10 18 15 20 -1 3 -18 -14 -14 -15 -13 35
-17 40 -4 47 7 21 36 -20 22 -1 35 20 13 14 -14 16 -14 16 0 0 9 11 23 25 32
14 9 25 21 25 27 0 15 -91 0 -112 -20 -11 -9 -18 -11 -18 -5 0 7 4 12 9 12 5
0 11 8 14 19 4 16 13 18 72 14 63 -3 67 -2 62 17 -8 29 29 37 52 11 11 -13 25
-19 35 -15 9 3 16 1 16 -5 0 -6 -13 -14 -30 -17 -16 -4 -27 -10 -25 -15 3 -4
1 -10 -4 -13 -5 -3 -11 1 -15 9 -7 19 -30 19 -46 0 -21 -25 0 -35 49 -23 28 7
45 8 50 1 6 -11 24 -10 54 2 13 5 17 2 17 -14 0 -12 5 -21 10 -21 6 0 10 13
10 30 0 24 3 28 18 23 14 -5 13 -3 -3 10 -20 15 -19 15 7 22 38 10 51 -1 36
-28 -6 -12 -18 -27 -27 -34 -14 -10 -14 -12 1 -18 24 -10 13 -24 -13 -18 -12
4 -25 0 -30 -8 -16 -25 -10 -28 27 -13 20 8 39 12 43 8 3 -4 0 -9 -7 -11 -9
-4 -10 -8 -2 -18 8 -10 3 -19 -20 -39 -18 -14 -38 -26 -46 -26 -8 0 -14 -4
-14 -10 0 -15 14 -12 61 14 43 25 69 25 49 1 -18 -22 16 -26 36 -4 12 14 13
19 4 19 -7 0 -11 3 -7 6 3 4 26 -5 51 -19 41 -23 47 -24 73 -10 25 13 29 12
40 -3 10 -14 10 -20 0 -32 -10 -13 -8 -14 13 -8 14 4 42 7 63 6 l37 -1 0 126
c0 117 -1 126 -18 123 -11 -2 -21 2 -23 7 -2 6 6 11 19 13 l22 3 0 520 0 519
-940 0 c-581 0 -940 -4 -940 -9 0 -6 5 -13 10 -16 6 -3 10 -13 10 -21 0 -9 13
-34 28 -57 16 -23 37 -61 47 -84 10 -23 22 -40 25 -38 4 3 6 -7 4 -20 -1 -14
2 -25 7 -25 6 0 5 -9 -2 -22 -9 -17 -9 -20 3 -15 13 5 13 0 1 -34 -12 -35 -11
-42 2 -55 8 -9 15 -19 15 -24 0 -5 3 -17 6 -27 5 -16 4 -16 -10 2 -16 18 -16
18 -10 -12 5 -26 3 -32 -15 -38 -29 -9 -26 -29 8 -58 17 -14 27 -28 24 -31 -4
-3 1 -6 10 -6 10 0 17 -8 17 -20 0 -11 7 -23 15 -26 8 -4 13 -10 10 -14 -3 -4
3 -14 12 -21 13 -11 17 -11 20 -1 6 17 30 15 37 -3 3 -8 0 -15 -6 -15 -6 0 -9
-3 -5 -6 3 -4 14 -3 24 1 10 4 39 8 65 9 44 1 47 0 52 -28 10 -47 7 -81 -8
-101 -12 -16 -11 -21 1 -33 8 -8 12 -21 9 -29 -5 -11 -1 -13 16 -8 19 7 21 5
15 -29 -3 -22 -2 -34 4 -31 5 4 9 -4 10 -17 0 -13 3 -17 6 -10 10 24 25 12 18
-15 -7 -29 -39 -68 -70 -85 -11 -6 -17 -7 -13 -3 4 5 4 13 -1 19 -13 16 -16
47 -7 74 4 13 3 28 -2 35 -10 13 -26 67 -24 80 3 9 -47 57 -60 57 -4 0 -5 12
-2 26 6 23 4 25 -22 22 -24 -2 -30 -8 -32 -33 -4 -38 -19 -54 -28 -31 -3 9
-20 24 -36 32 -21 11 -39 35 -60 82 -17 37 -31 72 -30 78 1 6 -9 21 -23 34
-21 20 -25 21 -25 6 0 -14 -4 -14 -32 6 -18 13 -34 26 -36 31 -2 4 -8 7 -13 7
-5 0 -19 10 -30 21 -16 16 -23 18 -29 8 -7 -10 -14 -9 -35 5 -29 19 -76 18
-83 -1 -2 -7 5 -13 15 -13 16 -1 15 -3 -6 -20 -13 -11 -29 -20 -37 -20 -9 0
-11 -6 -7 -17 6 -15 5 -16 -9 -3 -8 8 -13 20 -11 27 4 9 -3 9 -29 1 -66 -22
-107 -41 -103 -48 3 -4 -5 -11 -18 -14 -21 -7 -21 -7 -2 -16 11 -5 14 -9 7 -9
-8 -1 -10 -6 -6 -13 6 -10 4 -10 -7 0 -19 17 -29 15 -29 -8 0 -11 -6 -20 -14
-20 -8 0 -16 -7 -20 -15 -3 -8 -2 -15 2 -15 7 0 34 -51 29 -56 -2 -2 -19 -10
-39 -18 -39 -17 -58 -8 -58 27 0 12 -5 17 -13 14 -10 -4 -13 2 -9 20 5 28 28
41 45 24 17 -17 22 -13 23 18 1 21 -3 28 -12 24 -8 -3 -14 2 -14 11 0 9 7 16
15 16 25 0 74 41 68 57 -3 8 3 20 14 28 10 7 28 31 38 54 11 22 31 45 45 52
28 13 130 21 130 10 0 -3 17 -6 37 -6 71 0 50 58 -36 97 -34 15 -55 18 -90 13
-57 -8 -120 -24 -143 -36 -10 -5 -23 -9 -30 -9 -22 0 26 27 61 35 32 7 62 27
61 40 -1 20 2 25 16 25 12 0 10 5 -9 20 -14 11 -32 20 -40 20 -9 0 -18 4 -21
8 -3 5 -19 9 -36 10 -16 0 -66 8 -110 17 -44 9 -88 15 -97 14 -10 -1 -25 1
-33 5 -15 6 -153 25 -158 21 -2 -2 23 -33 191 -228 27 -32 48 -59 46 -61 -27
-19 -68 -46 -73 -46 -3 0 -2 7 1 17 4 11 3 14 -5 9 -7 -4 -10 -17 -6 -32 4
-16 2 -24 -6 -24 -7 0 -19 -8 -26 -17 -12 -17 -13 -17 -14 -1 0 9 8 22 18 27
14 9 15 12 3 20 -9 6 -12 18 -7 37 10 41 -9 18 -24 -28 -24 -78 -9 -188 27
-188 7 0 13 -8 13 -17 0 -18 -28 4 -96 77 -18 19 -36 31 -40 27 -17 -16 -23
-318 -10 -407 3 -14 5 -28 5 -32 1 -5 6 -8 12 -8 5 0 7 5 4 11 -4 6 2 5 14 -3
26 -16 35 -38 20 -52 -8 -8 -13 -8 -16 1 -2 7 -20 22 -40 34 l-36 22 7 210 c5
180 9 213 24 230 9 11 12 17 6 14 -8 -5 -13 5 -16 28 -4 38 -2 41 25 21 10 -8
15 -20 11 -30 -7 -18 3 -20 26 -6 18 11 28 156 11 173 -6 6 -11 24 -11 40 0
16 -4 26 -10 22 -5 -3 -12 5 -16 19 -3 14 -15 28 -25 31 -20 7 -26 30 -10 40
11 6 63 -41 81 -74 6 -13 9 -29 6 -37 -7 -17 10 -19 18 -1 6 12 1 -15 -9 -50
-2 -10 0 -25 5 -33 9 -13 14 -10 34 14 l23 28 33 -41 c19 -23 35 -39 38 -36 6
5 -51 75 -202 249 -65 75 -121 134 -124 131 -3 -3 4 -19 17 -35 12 -17 19 -35
16 -40 -3 -5 0 -7 8 -4 17 6 47 -31 47 -57 0 -28 -29 -17 -36 14 -3 17 -9 25
-13 19 -4 -7 -14 0 -25 18 -9 17 -23 30 -29 30 -14 1 -47 68 -47 95 0 16 2 15
20 -5 29 -34 37 -17 9 19 -25 31 -49 40 -49 19 0 -10 -2 -10 -8 -1 -6 10 -78
13 -299 12 l-292 -1 -4 -41 -4 -42 -1 43 -2 42 -85 0 c-73 0 -84 -2 -78 -16 3
-9 0 -20 -8 -25 -22 -14 -27 -11 -22 15 l5 24 -103 0 c-60 1 -108 -3 -116 -10
-9 -7 -13 -7 -13 1 0 7 -20 11 -49 11 -46 0 -50 -2 -54 -27 l-4 -28 -2 27 -1
27 -395 1 -395 0 0 -706z m1249 670 c-6 -7 -13 -55 -16 -106 -3 -51 -7 -95
-10 -98 -2 -2 -3 39 -2 93 1 54 5 100 10 103 4 2 6 11 2 19 -4 11 -1 13 11 9
12 -5 14 -10 5 -20z m-201 -26 c17 3 15 -24 -4 -42 -8 -9 -17 -16 -19 -16 -2
0 -3 24 -3 53 0 37 3 45 8 27 4 -14 12 -24 18 -22z m373 -44 c0 -43 -2 -133
-6 -198 -6 -88 -5 -117 4 -112 15 9 14 4 -4 -30 -17 -33 -20 -78 -5 -69 6 3
10 1 10 -4 0 -6 -4 -11 -10 -11 -5 0 -10 -20 -10 -45 0 -29 4 -45 13 -45 8 0
8 -3 -2 -9 -10 -7 -16 -39 -19 -115 -3 -58 -9 -106 -13 -106 -11 0 -11 33 1
185 5 66 12 183 16 260 4 77 8 152 9 168 1 15 2 71 3 124 2 115 11 120 13 7z
m445 77 c-3 -5 -9 -46 -12 -92 -8 -100 -14 -115 -14 -33 0 75 10 134 22 134 5
0 7 -4 4 -9z m-953 -31 c-7 -28 -13 -25 -13 6 0 14 4 23 9 20 5 -3 7 -15 4
-26z m-243 10 c0 -5 -2 -10 -4 -10 -3 0 -8 5 -11 10 -3 6 -1 10 4 10 6 0 11
-4 11 -10z m117 -32 c-3 -8 -6 -5 -6 6 -1 11 2 17 5 13 3 -3 4 -12 1 -19z
m353 -58 c-10 -80 -20 -267 -21 -422 0 -65 -5 -118 -10 -118 -11 0 -11 114 1
300 5 80 10 174 11 210 2 54 16 106 26 97 1 -2 -2 -32 -7 -67z m341 37 c-10
-9 -11 -8 -5 6 3 10 9 15 12 12 3 -3 0 -11 -7 -18z m-818 -7 c3 -11 1 -20 -4
-20 -5 0 -9 9 -9 20 0 11 2 20 4 20 2 0 6 -9 9 -20z m246 -55 c-1 -41 -6 -75
-12 -75 -5 0 -7 13 -3 31 3 17 6 51 6 75 0 24 2 44 6 44 3 0 4 -34 3 -75z
m-116 50 c-3 -9 -8 -14 -10 -11 -3 3 -2 9 2 15 9 16 15 13 8 -4z m884 -17 c-3
-8 -6 -5 -6 6 -1 11 2 17 5 13 3 -3 4 -12 1 -19z m-887 -78 c0 -38 -4 -70 -9
-70 -6 0 -8 12 -7 28 2 15 4 46 5 70 2 70 11 47 11 -28z m-133 18 c-3 -7 -5
-2 -5 12 0 14 2 19 5 13 2 -7 2 -19 0 -25z m1323 -6 c0 -15 -2 -15 -10 -2 -13
20 -13 33 0 25 6 -3 10 -14 10 -23z m-661 -56 c-5 -6 -9 7 -8 35 l1 44 8 -35
c5 -20 5 -39 -1 -44z m346 64 c3 -5 1 -10 -4 -10 -6 0 -11 5 -11 10 0 6 2 10
4 10 3 0 8 -4 11 -10z m-625 -20 c-6 -11 -15 -20 -20 -20 -6 0 -10 9 -10 20 0
13 7 20 20 20 18 0 19 -3 10 -20z m591 -16 c10 -9 15 -23 12 -31 -5 -12 -7
-12 -14 -1 -13 20 -12 -8 1 -33 7 -13 7 -19 0 -19 -5 0 -10 5 -10 11 0 5 -4 8
-9 4 -5 -3 -9 14 -8 40 2 50 3 51 28 29z m99 -9 c0 -33 -15 -33 -16 0 -1 14 2
25 7 25 5 0 9 -11 9 -25z m65 5 c3 -5 1 -10 -4 -10 -6 0 -11 5 -11 10 0 6 2
10 4 10 3 0 8 -4 11 -10z m67 -50 c-1 -10 0 -11 4 -2 11 24 24 12 24 -23 0
-32 -7 -40 -27 -32 -4 1 -8 10 -8 20 -1 10 -6 22 -12 28 -5 5 -7 24 -5 41 5
32 5 32 15 8 6 -14 10 -32 9 -40z m-1485 21 c-2 -11 3 -32 12 -48 10 -15 16
-34 13 -41 -3 -9 3 -12 14 -10 14 2 18 -2 17 -19 -3 -24 12 -32 20 -10 4 9 8
8 16 -3 9 -13 11 -13 11 3 0 9 4 17 9 17 5 0 11 9 14 20 8 32 23 23 23 -15 0
-25 8 -43 29 -65 32 -33 56 -38 75 -15 7 8 16 15 21 15 14 0 10 -17 -8 -36
-17 -17 -17 -17 -1 -11 12 4 24 -3 38 -21 30 -38 51 -43 78 -19 l22 20 0 -26
c0 -17 13 -41 35 -65 l35 -37 19 25 c22 27 23 27 36 -14 6 -16 22 -38 37 -49
28 -21 28 -21 42 -1 14 18 15 18 24 -6 6 -14 20 -35 32 -48 20 -21 23 -22 39
-8 22 20 31 20 31 2 0 -8 12 -29 27 -46 l26 -32 18 24 c17 22 19 22 19 3 0
-11 12 -33 27 -49 24 -26 28 -27 38 -12 16 21 25 20 25 -1 1 -10 10 -29 21
-42 17 -21 23 -23 40 -13 24 15 29 15 29 0 0 -7 9 -24 20 -38 19 -23 21 -24
34 -7 17 22 26 22 26 -2 0 -10 9 -29 20 -42 19 -23 21 -23 31 -6 10 17 13 16
33 -18 20 -32 24 -35 35 -21 19 22 31 20 31 -6 0 -13 7 -31 14 -41 12 -15 15
-16 26 -2 11 14 15 12 31 -15 18 -29 39 -40 39 -20 0 21 16 8 28 -22 9 -25 14
-30 24 -20 16 16 28 15 28 -2 0 -7 7 -19 16 -27 13 -10 17 -10 24 1 6 9 13 4
25 -20 15 -30 19 -32 29 -18 11 15 14 13 24 -14 9 -25 14 -29 25 -19 12 9 17
5 27 -19 11 -26 14 -28 24 -14 11 14 14 12 24 -11 12 -27 13 -27 27 -9 14 19
14 18 15 -1 0 -11 4 -26 9 -34 8 -12 12 -12 26 2 20 20 18 148 -3 155 -7 2
-12 -7 -13 -25 -1 -15 -5 -39 -9 -53 -6 -17 -8 0 -8 53 0 42 3 77 7 77 3 0 17
-10 31 -23 14 -13 32 -21 39 -19 8 3 18 -3 23 -12 12 -21 28 -21 29 2 1 12 3
10 8 -6 l6 -24 24 26 c21 22 23 29 13 51 -6 14 -17 24 -24 23 -6 -2 -13 5 -14
15 -1 13 -1 13 3 2 4 -13 8 -14 19 -4 11 9 14 9 14 -1 0 -8 6 -21 14 -29 24
-28 27 -67 7 -92 -19 -26 -33 -69 -22 -69 11 0 43 -59 36 -70 -3 -5 1 -34 10
-65 21 -71 40 -63 31 14 -4 31 -4 70 0 87 5 27 9 30 32 26 15 -3 32 -8 37 -12
6 -4 43 -6 82 -3 l73 6 40 52 c22 28 40 56 40 62 0 5 10 19 21 32 34 36 44 13
24 -51 -25 -73 -52 -108 -86 -108 -21 0 -28 -6 -32 -27 -6 -31 16 -74 36 -70
6 1 13 -7 13 -18 1 -11 2 -26 3 -33 1 -8 9 -10 26 -6 18 4 25 2 25 -9 0 -20
-23 -28 -59 -21 -36 8 -115 -28 -137 -61 -9 -14 -14 -34 -11 -45 4 -14 0 -20
-11 -20 -20 0 -39 -37 -34 -63 4 -18 4 -18 25 0 11 10 17 12 13 6 -4 -8 -1
-13 8 -13 9 0 16 4 16 8 0 13 72 32 95 26 11 -3 28 -16 38 -30 17 -23 17 -24
0 -30 -10 -3 -37 -14 -61 -25 -48 -22 -83 -24 -100 -7 -6 6 -23 12 -38 14 -14
2 -35 11 -45 20 -22 20 -20 21 -43 -31 -47 -106 -58 -125 -69 -118 -8 4 -8 2
0 -9 14 -17 8 -29 -12 -22 -7 3 -18 -8 -26 -25 -8 -17 -17 -31 -21 -31 -5 0
-8 -7 -8 -15 0 -8 -6 -12 -14 -9 -8 3 -19 -3 -26 -16 -6 -11 -15 -18 -21 -15
-5 4 -12 -1 -15 -9 -3 -9 -15 -16 -25 -16 -14 0 -21 -9 -26 -30 -4 -24 -8 -28
-19 -19 -8 6 -14 9 -14 5 0 -3 -1 -9 -2 -13 -2 -3 7 -8 20 -9 15 -3 22 1 22
12 0 11 6 13 20 9 15 -5 23 0 30 17 11 23 11 23 6 1 -2 -13 0 -23 5 -23 5 0 9
5 9 10 0 6 9 10 19 10 10 0 21 6 24 14 4 9 14 12 26 9 15 -4 21 -1 21 11 0 9
5 16 10 16 13 0 13 -17 0 -25 -6 -4 -8 -11 -5 -16 4 -5 1 -9 -4 -9 -6 0 -11
-7 -11 -15 0 -28 15 -15 39 35 12 28 27 47 32 44 5 -3 2 -15 -6 -27 -24 -34
-18 -43 7 -11 13 16 35 41 50 56 16 15 28 37 28 50 0 33 23 138 30 138 11 0
34 -31 59 -80 13 -25 29 -49 36 -55 21 -17 47 -76 40 -93 -3 -8 0 -19 7 -24
10 -6 10 -8 1 -8 -7 0 -13 -11 -13 -25 0 -14 5 -25 11 -25 16 0 59 -48 59 -65
0 -24 -12 -45 -26 -45 -8 0 -23 -9 -34 -20 -13 -13 -20 -15 -20 -7 0 7 -16 19
-35 26 -49 17 -68 2 -59 -48 l6 -36 -26 48 c-27 48 -49 168 -39 207 3 11 1 20
-3 20 -14 -1 -64 -89 -71 -124 -3 -17 -10 -39 -15 -48 -10 -21 16 -184 39
-239 17 -42 10 -93 -17 -124 -35 -40 -30 -150 12 -228 9 -18 10 -18 29 2 11
11 16 28 13 38 -3 10 2 7 11 -7 l16 -25 -5 25 c-4 14 -9 35 -12 48 -7 25 13
31 22 7 4 -8 10 -15 16 -15 5 0 6 4 3 10 -3 6 -2 10 3 10 14 0 31 -106 30
-180 -1 -45 10 -111 36 -215 34 -135 36 -153 26 -195 -7 -25 -16 -70 -20 -100
-10 -65 -68 -375 -77 -407 -4 -19 -1 -23 19 -23 24 0 48 -16 48 -32 0 -5 -11
-6 -24 -2 -27 7 -56 -25 -56 -63 0 -15 -10 -28 -28 -37 -39 -20 -50 -35 -53
-76 -4 -38 -25 -80 -41 -80 -6 0 -7 8 -4 18 4 10 -2 7 -14 -8 -21 -26 -26 -55
-12 -64 5 -3 32 -7 59 -10 l51 -4 5 46 c3 26 1 52 -3 57 -5 6 -1 21 10 35 l20
25 0 -25 c1 -24 1 -24 12 -5 6 11 22 31 35 44 32 33 28 48 -9 42 -5 0 -8 6 -8
14 0 18 17 20 23 3 3 -10 7 -10 17 -1 7 7 25 9 41 6 21 -4 30 -1 35 11 3 9 10
14 14 11 5 -3 21 16 37 42 15 26 54 72 87 102 62 60 95 114 120 201 17 58 17
65 16 148 -1 46 2 54 19 59 12 3 21 8 21 12 0 3 3 17 7 31 6 24 5 24 -14 8
-14 -13 -22 -15 -30 -7 -16 16 -43 4 -43 -19 0 -10 -4 -22 -9 -28 -5 -5 -14
-27 -21 -48 -7 -22 -25 -60 -39 -85 -15 -26 -42 -81 -60 -124 -19 -42 -37 -77
-41 -77 -11 0 27 165 48 207 11 21 29 70 41 109 25 85 54 131 100 156 18 10
40 25 47 33 8 7 23 17 34 20 11 3 20 13 20 21 0 8 6 13 13 11 7 -1 12 8 12 21
0 13 8 30 18 37 9 7 17 17 17 24 0 6 7 11 15 11 18 0 20 16 3 23 -7 3 -4 6 7
6 29 1 67 31 61 47 -3 7 4 19 15 24 11 6 24 22 29 36 5 13 16 24 24 24 10 0
13 6 10 15 -4 10 0 15 15 15 12 0 20 3 20 8 -3 18 2 32 11 32 6 0 21 10 33 23
12 12 35 31 51 41 23 15 30 16 37 5 9 -14 -1 -25 -47 -57 -14 -9 -15 -14 -6
-18 6 -3 12 -10 12 -15 0 -6 -4 -8 -9 -4 -5 3 -12 -4 -16 -15 -3 -11 -12 -20
-18 -20 -7 0 -6 -4 3 -9 19 -13 33 -3 25 18 -4 10 -3 13 4 6 5 -5 13 -23 16
-38 7 -25 4 -29 -24 -40 -31 -11 -42 -27 -19 -27 6 0 4 -8 -6 -19 -24 -26 -13
-61 17 -57 38 5 78 26 72 36 -3 5 1 10 11 10 11 0 15 6 11 20 -3 12 0 20 8 20
26 0 42 44 40 110 -1 36 0 58 2 48 2 -9 11 -19 19 -22 16 -6 19 9 4 19 -6 4
-8 11 -4 16 3 5 10 6 16 3 6 -4 8 1 6 12 -2 11 3 24 11 30 12 10 13 15 3 27
-10 12 -10 16 3 21 8 3 15 11 15 19 0 7 12 24 26 36 24 21 28 22 43 7 15 -15
14 -17 -6 -22 -26 -7 -39 -34 -16 -34 19 0 38 23 58 66 12 26 19 31 40 27 20
-4 25 -11 25 -34 0 -20 4 -27 14 -23 9 3 17 -3 21 -15 3 -12 11 -21 16 -21 5
0 9 -6 8 -12 -3 -21 12 -48 27 -48 8 0 14 7 14 15 0 8 5 15 11 15 6 0 8 -8 4
-19 -5 -16 -2 -18 15 -14 14 4 20 1 20 -10 0 -8 6 -18 13 -20 7 -3 4 -6 -7 -6
-12 -1 -16 -6 -13 -16 4 -8 2 -17 -3 -20 -16 -10 -12 -35 5 -35 8 0 15 7 15
15 0 21 20 19 21 -2 5 -56 -6 -101 -32 -140 -16 -23 -29 -46 -29 -51 0 -6 -11
-32 -24 -59 -13 -26 -45 -103 -70 -171 -25 -68 -57 -148 -71 -178 -14 -30 -25
-59 -25 -64 0 -5 -16 -39 -35 -77 -19 -37 -35 -72 -35 -76 0 -5 -12 -34 -26
-65 -14 -31 -26 -65 -27 -77 -1 -12 -19 -47 -41 -77 -22 -33 -35 -61 -31 -68
4 -7 3 -15 -4 -19 -6 -4 -12 -22 -14 -39 -2 -18 -9 -38 -15 -44 -17 -17 -15
-38 3 -32 11 5 13 2 9 -10 -3 -9 -12 -16 -19 -16 -8 0 -23 -12 -34 -26 -11
-14 -25 -23 -30 -20 -5 4 -11 -6 -13 -20 -4 -33 -32 -54 -49 -37 -9 9 -8 16 5
28 27 27 2 48 -26 23 -15 -15 -55 -38 -63 -38 -3 0 -1 8 4 18 7 14 5 17 -14
17 -13 0 -21 -3 -19 -7 2 -4 0 -10 -6 -13 -8 -5 -7 -11 1 -21 6 -8 9 -18 5
-22 -12 -11 -57 -9 -53 3 2 5 12 8 22 7 16 -3 17 -1 6 12 -9 11 -10 16 -2 16
16 0 13 17 -5 24 -8 3 -12 2 -9 -4 4 -6 -8 -10 -27 -10 -19 0 -40 -6 -47 -12
-11 -11 -12 -9 -7 8 5 18 1 22 -24 27 -31 7 -42 27 -15 27 8 0 15 -5 15 -11 0
-5 5 -7 11 -3 13 8 2 19 -30 29 -15 5 -21 3 -17 -3 3 -6 1 -12 -6 -14 -9 -3
-8 -9 5 -22 23 -23 22 -35 -3 -29 -13 4 -26 -1 -34 -12 -12 -17 -13 -17 -18 3
-4 15 0 23 13 27 24 8 25 25 2 26 -14 0 -13 2 5 9 30 13 29 40 -3 40 -14 0
-25 6 -25 13 0 20 -86 21 -94 1 -3 -9 -4 -20 0 -25 3 -5 -2 -12 -10 -15 -26
-10 -18 -27 9 -22 16 4 31 -2 42 -14 10 -11 32 -33 48 -50 17 -17 29 -38 27
-46 -2 -10 2 -13 12 -9 10 4 20 -1 26 -13 6 -11 16 -20 23 -20 7 0 17 -8 24
-18 10 -17 8 -18 -12 -14 -13 2 -26 13 -29 24 -4 16 -10 19 -28 13 -13 -4 -35
-9 -50 -12 -15 -3 -25 -10 -22 -17 2 -6 -5 -17 -16 -24 -13 -8 -20 -9 -20 -1
0 18 -22 5 -31 -18 -7 -19 -4 -21 18 -20 26 2 27 0 28 -51 1 -29 -2 -55 -7
-58 -4 -3 -8 0 -8 5 0 6 -9 11 -19 11 -26 0 -36 17 -14 23 10 3 5 5 -11 4 -21
-1 -33 4 -41 19 -5 11 -17 19 -25 16 -10 -3 -9 0 3 10 11 8 16 20 12 30 -7 19
-35 33 -35 18 0 -6 -11 -10 -25 -10 -14 0 -25 5 -25 11 0 6 -7 9 -15 5 -8 -3
-15 0 -15 7 0 7 -3 22 -6 35 -6 19 -3 22 25 22 18 0 30 4 26 9 -3 6 -15 8 -26
6 -19 -4 -21 -1 -16 30 3 19 2 35 -3 35 -5 0 -12 -27 -16 -59 -6 -55 -9 -60
-33 -63 -24 -3 -58 8 -71 23 -11 13 -39 17 -42 7 -8 -24 -28 4 -22 30 5 22 4
25 -7 14 -18 -17 -29 -15 -29 6 0 14 -2 14 -9 3 -12 -18 -42 -6 -35 14 7 17 3
18 -20 9 -9 -3 -13 -10 -10 -15 3 -5 0 -9 -5 -9 -6 0 -11 -5 -11 -11 0 -5 5
-7 10 -4 22 14 31 -8 11 -26 -24 -23 -28 -59 -6 -59 8 0 15 -4 15 -10 0 -5 9
-10 20 -10 23 0 27 -27 7 -54 -12 -16 -15 -14 -38 22 -25 38 -53 137 -30 102
7 -9 11 -10 11 -3 0 6 -5 15 -11 19 -6 3 -8 15 -5 27 3 11 0 29 -5 39 -10 19
-11 19 -24 2 -19 -27 -43 -3 -51 54 -3 26 -10 52 -14 57 -4 6 -10 20 -13 33
-4 17 -1 22 11 20 12 -2 19 11 28 55 14 72 13 68 43 92 14 10 29 23 32 29 4 5
47 10 95 12 l89 2 1 31 c1 17 -2 31 -7 31 -5 0 -9 11 -9 25 0 17 7 28 22 34
l23 8 -23 7 c-12 4 -27 4 -33 0 -7 -4 -9 -3 -6 3 4 6 -6 16 -21 22 -16 7 -36
26 -46 42 -12 21 -21 28 -28 21 -7 -7 -15 -6 -25 4 -23 23 -30 9 -23 -50 5
-44 3 -56 -8 -56 -8 0 -12 6 -9 15 4 8 2 17 -3 20 -6 4 -10 21 -10 39 0 49
-11 96 -21 90 -5 -3 -9 0 -9 5 0 6 -9 2 -20 -9 -20 -20 -27 -36 -11 -26 5 3
11 -3 14 -15 4 -16 3 -18 -8 -9 -9 8 -15 8 -20 0 -3 -5 -2 -10 3 -10 14 0 9
-32 -7 -52 -14 -16 -16 -16 -31 3 -19 21 -40 25 -40 8 0 -6 -12 -9 -27 -7 -21
2 -28 8 -26 23 9 95 15 131 23 139 6 6 10 24 10 41 0 16 4 44 9 62 6 19 5 49
-1 79 -7 34 -7 53 1 65 13 21 -2 35 -17 16 -6 -7 -16 -33 -21 -59 -12 -53 -29
-100 -39 -108 -4 -3 -20 -25 -36 -49 -24 -37 -26 -45 -13 -52 20 -12 10 -59
-13 -59 -13 0 -17 -6 -13 -19 3 -14 0 -19 -13 -18 -14 2 -23 -10 -33 -42 -15
-47 -55 -90 -83 -91 -10 0 -18 -6 -18 -14 0 -13 -20 -26 -39 -26 -16 0 -6 33
11 38 11 3 17 10 14 19 -4 11 -1 11 14 3 17 -9 20 -8 17 12 -1 13 -9 28 -17
34 -11 9 -9 11 13 9 15 -2 27 0 27 5 0 5 3 17 6 27 5 15 4 15 -5 3 -14 -19
-14 -5 -1 42 10 35 9 40 -20 68 -21 21 -36 28 -43 22 -7 -5 -21 -6 -32 -1 -18
7 -17 8 6 8 20 1 28 7 31 26 4 17 1 25 -8 25 -8 0 -14 -7 -14 -15 0 -8 -4 -15
-10 -15 -5 0 -10 9 -10 20 0 11 -6 20 -14 20 -8 0 -18 5 -22 11 -4 6 1 10 12
9 11 -2 34 1 52 5 27 6 31 11 26 28 -4 13 -2 17 5 13 7 -4 11 1 11 13 0 11 4
22 9 25 10 7 -8 88 -21 97 -6 3 -3 9 6 12 8 3 20 16 27 29 12 22 12 22 -14 5
-15 -9 -33 -17 -40 -17 -17 0 -30 53 -16 58 6 2 3 15 -6 29 -17 26 -11 48 6
23 8 -11 9 -9 4 9 -4 13 -3 21 2 18 5 -3 15 20 22 51 7 31 22 74 32 94 10 20
20 57 23 83 2 25 11 54 20 64 9 9 16 21 16 25 0 4 9 16 20 28 22 24 19 38 -4
19 -11 -9 -15 -8 -19 3 -9 23 14 85 60 165 24 41 42 78 41 83 -5 15 -103 -94
-150 -167 -49 -78 -62 -104 -59 -122 1 -7 -7 -23 -19 -35 -15 -16 -17 -24 -8
-29 9 -6 8 -10 -5 -15 -12 -4 -16 -13 -12 -25 7 -21 -17 -63 -30 -51 -4 4 -4
-11 -1 -34 10 -61 13 -144 5 -144 -4 0 -5 -28 -3 -62 4 -50 2 -58 -6 -39 -6
13 -12 85 -14 160 -4 122 -16 191 -35 191 -14 -1 -52 -51 -46 -61 6 -8 2 -8
-13 0 -15 8 -23 7 -32 -4 -9 -11 -10 -15 -1 -15 7 0 10 -4 7 -9 -8 -12 38 -98
71 -133 l28 -29 -52 24 c-30 14 -64 22 -77 20 -21 -4 -24 -10 -24 -49 0 -24 4
-46 9 -50 5 -3 9 -10 9 -17 0 -8 -3 -8 -12 1 -20 20 -28 14 -18 -13 5 -14 7
-25 4 -25 -3 0 2 -10 10 -21 10 -15 12 -28 6 -45 -6 -15 -5 -24 3 -28 8 -3 9
-7 2 -13 -5 -4 -10 -28 -9 -53 1 -53 -13 -110 -28 -110 -6 0 -8 7 -4 15 3 9 0
15 -8 15 -12 0 -86 103 -86 120 0 12 -50 70 -61 70 -15 0 -10 -14 15 -42 14
-14 23 -28 20 -31 -3 -3 5 -22 19 -44 30 -48 72 -123 79 -144 5 -12 -2 -16
-33 -18 -21 -1 -48 3 -59 9 -22 12 -27 55 -7 63 7 3 5 6 -5 6 -18 1 -26 21 -9
21 10 0 7 32 -4 50 -3 5 -12 7 -20 3 -10 -3 -15 1 -16 13 0 11 -5 4 -10 -15
-6 -18 -13 -31 -15 -28 -11 11 29 171 86 344 88 269 107 320 157 423 60 125
143 209 264 269 169 83 179 91 225 166 32 53 44 84 49 130 4 33 13 87 20 120
7 33 13 90 14 126 2 88 17 203 36 263 8 27 15 57 15 65 0 10 -26 31 -67 53
-153 81 -224 119 -348 183 -71 37 -142 76 -156 86 -15 10 -59 34 -98 53 -40
19 -83 46 -97 59 -13 14 -51 35 -83 47 -33 12 -69 32 -81 45 -12 13 -45 29
-74 36 -28 6 -62 20 -76 29 -14 10 -101 60 -195 113 -279 155 -268 149 -253
159 9 7 7 8 -7 4 -23 -7 -112 44 -121 69 -4 8 -10 13 -15 10 -4 -3 -31 7 -59
22 -44 24 -49 31 -45 53 3 14 6 51 7 82 1 55 3 57 25 52 15 -4 23 -2 23 7 0
10 3 10 11 2 9 -9 15 -8 25 2 20 20 17 27 -8 19 -21 -6 -21 -6 -7 17 9 13 19
30 23 37 11 18 19 14 13 -7z m640 -3 c-3 -8 -6 -5 -6 6 -1 11 2 17 5 13 3 -3
4 -12 1 -19z m963 -16 c0 -7 -4 -10 -10 -7 -5 3 -10 16 -10 28 0 18 2 19 10 7
5 -8 10 -21 10 -28z m52 -21 c-2 -23 -8 -38 -13 -35 -10 6 -11 39 -2 72 9 35
19 9 15 -37z m-1811 27 c-8 -24 -41 -38 -41 -19 0 6 5 11 10 11 6 0 10 7 10
15 0 8 7 15 15 15 11 0 12 -6 6 -22z m26 0 c-3 -8 -6 -5 -6 6 -1 11 2 17 5 13
3 -3 4 -12 1 -19z m413 -49 c0 -41 -4 -68 -9 -64 -6 3 -8 29 -6 58 2 28 4 58
5 65 0 6 2 12 5 12 3 0 5 -32 5 -71z m565 14 c-6 -71 -14 -297 -15 -376 0 -36
-4 -56 -10 -52 -6 4 -8 34 -6 73 3 37 7 135 11 217 3 83 8 160 11 173 8 40 13
23 9 -35z m588 37 c-3 -11 -7 -20 -9 -20 -2 0 -4 9 -4 20 0 11 4 20 9 20 5 0
7 -9 4 -20z m1577 -37 c0 -24 -5 -33 -16 -33 -11 0 -14 5 -10 16 3 9 6 30 6
47 0 24 3 28 10 17 5 -8 10 -30 10 -47z m485 47 c-3 -5 -11 -10 -16 -10 -6 0
-7 5 -4 10 3 6 11 10 16 10 6 0 7 -4 4 -10z m-3361 -16 c3 -8 2 -12 -4 -9 -6
3 -10 10 -10 16 0 14 7 11 14 -7z m388 -121 c-3 -124 -7 -155 -15 -142 -5 9 5
279 11 279 4 0 6 -62 4 -137z m417 27 c-3 -14 -7 -83 -9 -155 -1 -71 -4 -141
-5 -155 -2 -14 -4 -47 -4 -74 -1 -28 -5 -46 -9 -40 -9 10 5 461 16 504 5 22 6
20 12 -15 3 -22 3 -51 -1 -65z m415 -90 c-11 -39 -15 -63 -16 -87 -1 -44 -18
-23 -18 22 0 25 4 45 8 45 13 0 17 60 9 135 -2 27 -2 56 2 65 8 22 23 -150 15
-180z m-717 143 c-3 -10 -5 -4 -5 12 0 17 2 24 5 18 2 -7 2 -21 0 -30z m903
-9 c0 -27 -4 -43 -10 -39 -17 11 -11 85 7 85 2 0 3 -21 3 -46z m185 -9 c-12
-45 -14 -47 -14 -17 -1 30 16 79 24 70 2 -1 -3 -25 -10 -53z m-1959 19 c-4 -9
-9 -15 -11 -12 -3 3 -3 13 1 22 4 9 9 15 11 12 3 -3 3 -13 -1 -22z m93 0 c-14
-18 -24 -11 -15 11 3 9 11 13 16 10 8 -5 7 -11 -1 -21z m77 13 c4 -4 -5 -7
-19 -7 -15 0 -27 4 -27 8 0 10 36 9 46 -1z m470 -78 c-7 -110 -16 -113 -16 -6
0 56 4 87 11 87 7 0 9 -26 5 -81z m1033 49 c0 -27 -2 -29 -8 -13 -5 11 -6 26
-4 33 8 21 13 13 12 -20z m1467 -15 c-11 -11 -19 6 -11 24 8 17 8 17 12 0 3
-10 2 -21 -1 -24z m-3236 7 c0 -5 -5 -10 -11 -10 -5 0 -7 5 -4 10 3 6 8 10 11
10 2 0 4 -4 4 -10z m1910 -5 c7 -8 16 -12 21 -9 5 3 9 -10 10 -28 0 -27 2 -29
8 -13 8 19 8 19 15 -2 4 -13 11 -23 16 -23 4 0 10 -9 13 -20 3 -11 1 -18 -3
-15 -9 5 -16 -26 -23 -95 -2 -20 -4 -9 -5 25 -2 58 -21 105 -43 105 -5 0 -10
-12 -10 -27 -1 -28 -7 -11 -25 85 -7 34 5 42 26 17z m-1710 -10 c0 -15 -44
-53 -56 -48 -19 7 -18 23 1 23 8 0 15 7 15 15 0 8 9 15 20 15 11 0 20 -2 20
-5z m1861 -88 c-8 -8 -10 -1 -7 23 6 53 9 58 13 21 3 -18 0 -38 -6 -44z
m-1096 -48 c-2 -61 -7 -114 -10 -117 -3 -3 -5 44 -5 105 0 94 4 123 16 123 1
0 1 -50 -1 -111z m1450 91 c-3 -5 -13 -10 -21 -10 -8 0 -12 5 -9 10 3 6 13 10
21 10 8 0 12 -4 9 -10z m-2241 -36 c9 -3 16 -17 16 -30 0 -22 -2 -23 -27 -12
-16 6 -35 18 -43 26 -13 12 -12 13 8 7 13 -4 22 -2 22 4 0 13 3 13 24 5z
m2176 -4 c0 -5 -4 -10 -10 -10 -5 0 -10 5 -10 10 0 6 5 10 10 10 6 0 10 -4 10
-10z m-330 -35 c-10 -12 -10 -15 4 -15 17 0 22 -15 7 -24 -5 -3 -7 -27 -5 -53
l3 -48 -9 49 c-5 26 -11 54 -14 62 -7 18 3 44 16 44 6 0 5 -6 -2 -15z m50 -20
c0 -5 -5 -3 -10 5 -5 8 -10 20 -10 25 0 6 5 3 10 -5 5 -8 10 -19 10 -25z
m-208 -108 c-2 -62 -8 -119 -14 -127 -6 -10 -7 19 -4 85 3 55 6 118 6 140 0
25 3 35 9 27 4 -7 6 -64 3 -125z m-409 103 c3 -11 1 -20 -4 -20 -5 0 -9 9 -9
20 0 11 2 20 4 20 2 0 6 -9 9 -20z m104 -62 c-3 -8 -6 -5 -6 6 -1 11 2 17 5
13 3 -3 4 -12 1 -19z m3008 -8 c-3 -5 -13 -10 -21 -10 -8 0 -12 5 -9 10 3 6
13 10 21 10 8 0 12 -4 9 -10z m-2823 -180 c19 -56 19 -63 0 -49 -9 7 -27 22
-39 32 -13 12 -27 16 -35 11 -10 -6 -10 -4 1 9 7 9 11 24 7 32 -3 8 -1 15 4
15 9 0 14 -14 11 -32 0 -5 4 -8 9 -8 12 0 12 3 12 100 l0 75 9 -75 c5 -41 14
-90 21 -110z m-72 166 c0 -2 -7 -9 -15 -16 -12 -10 -15 -10 -15 4 0 9 7 16 15
16 8 0 15 -2 15 -4z m-106 -21 c-4 -8 -8 -15 -10 -15 -2 0 -4 7 -4 15 0 8 4
15 10 15 5 0 7 -7 4 -15z m336 -15 c0 -5 -5 -10 -11 -10 -5 0 -7 5 -4 10 3 6
8 10 11 10 2 0 4 -4 4 -10z m-239 -23 c-10 -9 -11 -8 -5 6 3 10 9 15 12 12 3
-3 0 -11 -7 -18z m279 -255 l20 -24 9 23 c9 21 10 22 10 4 1 -11 10 -33 21
-50 11 -16 20 -39 20 -49 0 -18 -2 -18 -25 4 -23 22 -25 22 -25 4 -1 -16 -3
-15 -15 7 -18 33 -59 61 -79 53 -9 -4 -16 2 -18 16 -2 11 -6 19 -9 18 -11 -5
-49 34 -49 49 0 7 -7 13 -15 13 -9 0 -15 10 -15 26 0 14 4 23 9 19 5 -3 11 3
14 12 3 15 6 14 15 -7 12 -28 41 -55 69 -64 18 -6 21 0 26 61 4 38 8 88 9 113
1 25 4 -11 5 -79 3 -105 7 -127 23 -149z m415 258 c-3 -5 -15 -10 -26 -10 -11
0 -17 5 -14 10 3 6 15 10 26 10 11 0 17 -4 14 -10z m895 -10 c-20 -13 -33 -13
-25 0 3 6 14 10 23 10 15 0 15 -2 2 -10z m535 -70 c-3 -5 -10 -10 -16 -10 -5
0 -9 5 -9 10 0 6 7 10 16 10 8 0 12 -4 9 -10z m-1665 -107 c0 -74 -3 -104 -10
-97 -10 10 -3 204 6 204 2 0 4 -48 4 -107z m2247 101 c-3 -3 -12 -4 -19 -1 -8
3 -5 6 6 6 11 1 17 -2 13 -5z m-1672 -38 c19 -8 35 -19 35 -24 0 -5 18 -17 40
-27 51 -23 70 -52 58 -85 -6 -16 -5 -26 1 -28 6 -2 11 -15 11 -28 0 -21 -9
-28 -31 -26 -4 1 -15 -8 -24 -18 -10 -11 -29 -20 -43 -20 -36 0 -89 -28 -95
-51 -7 -28 -45 -24 -59 6 -6 13 -23 28 -37 33 -31 10 -104 -1 -109 -17 -2 -6
-9 -8 -15 -4 -6 4 -29 6 -52 4 l-40 -2 1 38 c1 54 12 83 43 109 15 13 40 41
55 63 30 43 88 83 109 76 6 -2 28 0 47 4 52 13 67 13 105 -3z m705 -6 c0 -5
-4 -10 -10 -10 -5 0 -10 5 -10 10 0 6 5 10 10 10 6 0 10 -4 10 -10z m-1984
-128 c-12 -12 -14 6 -8 68 l7 65 3 -64 c2 -35 1 -66 -2 -69z m804 114 c0 -8 2
-20 5 -28 4 -9 -3 -14 -19 -16 -23 -2 -24 0 -13 28 12 31 27 40 27 16z m77
-69 c35 3 44 2 39 -9 -3 -7 -9 -21 -12 -30 -3 -9 -18 -18 -33 -20 -18 -2 -27
-10 -29 -25 -2 -13 -7 -23 -12 -23 -5 0 -7 7 -4 15 9 24 -10 17 -21 -7 -13
-29 -35 -35 -35 -9 0 12 4 21 10 21 5 0 12 16 16 35 3 19 10 38 15 41 5 3 10
24 11 47 l1 42 4 -42 4 -41 46 5z m2017 48 c4 -11 -1 -15 -19 -15 -29 0 -34
16 -7 23 9 3 18 5 18 6 1 0 4 -6 8 -14z m-2661 -68 c-9 -45 -18 -30 -14 21 3
35 5 42 11 26 4 -11 6 -32 3 -47z m-153 -12 c0 -37 -4 -65 -10 -65 -11 0 -14
113 -3 123 12 13 13 7 13 -58z m75 35 c3 -5 -1 -10 -9 -10 -9 0 -16 5 -16 10
0 6 4 10 9 10 6 0 13 -4 16 -10z m-5 -85 c0 -30 -4 -55 -10 -55 -5 0 -10 25
-10 55 0 30 5 55 10 55 6 0 10 -25 10 -55z m1721 24 c9 -17 8 -25 -5 -37 -9
-10 -16 -12 -16 -5 0 6 -7 19 -16 27 -8 9 -12 20 -9 26 10 17 34 11 46 -11z
m1012 -9 c22 -1 22 -1 2 -12 -11 -6 -25 -18 -31 -27 -9 -12 -11 -7 -9 25 4 48
6 54 12 32 2 -10 14 -18 26 -18z m-2600 -72 c-6 -84 -8 -96 -19 -86 -9 9 7
168 17 168 5 0 6 -37 2 -82z m-65 16 c-3 -76 -18 -80 -18 -5 0 35 4 61 10 61
6 0 9 -23 8 -56z m133 -22 c-6 -2 -11 -28 -11 -65 0 -33 -3 -57 -7 -53 -4 4
-6 36 -5 71 2 34 0 65 -6 68 -7 5 -8 33 -2 57 0 3 10 -13 22 -35 14 -26 17
-40 9 -43z m79 42 c0 -8 -4 -12 -10 -9 -5 3 -10 13 -10 21 0 8 5 12 10 9 6 -3
10 -13 10 -21z m1460 -15 c0 -6 -4 -7 -10 -4 -5 3 -10 11 -10 16 0 6 5 7 10 4
6 -3 10 -11 10 -16z m-1470 -19 c7 11 10 12 10 2 0 -7 5 -10 10 -7 6 3 10 2
10 -4 0 -5 10 -11 23 -13 12 -2 22 -10 22 -18 0 -20 17 -39 31 -33 26 10 48
-177 23 -193 -8 -5 -10 12 -7 59 3 54 1 67 -14 76 -16 10 -18 7 -18 -43 0 -30
-5 -58 -11 -61 -7 -5 -10 12 -9 51 2 61 -5 94 -21 94 -5 0 -9 -17 -10 -37 0
-21 -5 -47 -10 -58 -6 -14 -8 8 -5 68 3 49 1 87 -4 87 -5 0 -7 -7 -4 -15 4 -8
1 -15 -6 -15 -6 0 -14 9 -17 20 -3 12 -12 19 -21 18 -20 -4 -29 32 -11 43 10
6 16 1 22 -14 7 -18 10 -19 17 -7z m2478 -6 c-11 -10 -51 -8 -55 4 -3 7 4 12
16 12 11 0 23 6 28 13 5 9 9 7 11 -6 2 -10 2 -20 0 -23z m36 11 c-4 -8 -8 -15
-10 -15 -2 0 -4 7 -4 15 0 8 4 15 10 15 5 0 7 -7 4 -15z m-2110 -20 c-4 -8 -8
-15 -10 -15 -2 0 -4 7 -4 15 0 8 4 15 10 15 5 0 7 -7 4 -15z m-424 -97 c0 -45
-3 -59 -11 -51 -10 10 -4 113 7 113 2 0 4 -28 4 -62z m450 50 c0 -5 -11 -8
-25 -8 -14 0 -25 3 -25 8 0 4 11 7 25 7 14 0 25 -3 25 -7z m2140 -8 c0 -5 -4
-10 -10 -10 -5 0 -10 5 -10 10 0 6 5 10 10 10 6 0 10 -4 10 -10z m193 -10 c3
-13 -1 -24 -13 -30 -24 -13 -35 3 -20 30 14 26 26 26 33 0z m87 10 c0 -5 -18
-10 -41 -10 -24 0 -38 4 -34 10 3 6 22 10 41 10 19 0 34 -4 34 -10z m-2260
-24 c0 -3 -4 -8 -10 -11 -5 -3 -10 -1 -10 4 0 6 5 11 10 11 6 0 10 -2 10 -4z
m1405 -16 c-10 -11 -21 -18 -23 -15 -3 3 3 12 14 20 27 20 30 18 9 -5z m-1515
0 c0 -5 -5 -10 -11 -10 -6 0 -8 -8 -4 -19 3 -11 1 -22 -5 -26 -5 -3 -10 -17
-10 -31 0 -15 -6 -24 -15 -24 -18 0 -21 70 -5 101 11 20 50 27 50 9z m1570 0
c-8 -5 -19 -10 -25 -10 -5 0 -3 5 5 10 8 5 20 10 25 10 6 0 3 -5 -5 -10z
m-783 -40 c27 -33 39 -60 27 -60 -19 1 -64 50 -64 70 0 27 11 25 37 -10z m427
5 c-4 -9 0 -15 10 -15 9 0 16 -4 16 -10 0 -10 -13 -14 -42 -11 -11 2 -18 -5
-18 -15 0 -15 -2 -16 -12 -5 -11 10 -9 14 5 22 12 7 16 17 12 30 -5 14 -2 19
14 19 14 0 19 -5 15 -15z m-49 -5 c-3 -5 -11 -10 -16 -10 -6 0 -7 5 -4 10 3 6
11 10 16 10 6 0 7 -4 4 -10z m1045 -20 c0 -5 -4 -10 -10 -10 -5 0 -10 5 -10
10 0 6 5 10 10 10 6 0 10 -4 10 -10z m60 -4 c0 -3 -4 -8 -10 -11 -5 -3 -10 -1
-10 4 0 6 5 11 10 11 6 0 10 -2 10 -4z m-788 -32 c-5 -26 -28 -48 -41 -40 -16
10 -14 32 5 51 20 20 40 14 36 -11z m-442 -5 c0 -5 -4 -9 -10 -9 -5 0 -10 7
-10 16 0 8 5 12 10 9 6 -3 10 -10 10 -16z m1190 6 c-7 -9 -15 -13 -17 -11 -7
7 7 26 19 26 6 0 6 -6 -2 -15z m-960 -12 c0 -23 -17 -49 -26 -41 -9 10 4 58
16 58 6 0 10 -8 10 -17z m326 3 c10 -8 16 -18 12 -22 -11 -10 -60 14 -53 26 8
14 18 13 41 -4z m-2676 -12 c0 -8 -4 -12 -10 -9 -5 3 -10 10 -10 16 0 5 5 9
10 9 6 0 10 -7 10 -16z m1234 -6 c-3 -5 -8 -7 -12 -4 -4 2 -16 0 -27 -5 -15
-7 -10 -8 20 -7 22 1 48 8 58 16 28 24 22 -10 -8 -46 -21 -25 -32 -30 -72 -30
-104 -2 -163 42 -94 71 33 14 143 18 135 5z m1006 2 c0 -5 -7 -10 -15 -10 -8
0 -15 5 -15 10 0 6 7 10 15 10 8 0 15 -4 15 -10z m1197 -23 c3 -4 -1 -7 -10
-7 -8 0 -22 -3 -31 -6 -10 -4 -16 -1 -16 9 0 16 42 18 57 4z m-1157 -44 c-1
-18 -18 -35 -24 -24 -4 6 -4 16 -1 21 7 12 25 13 25 3z m1280 -3 c0 -5 -7 -10
-16 -10 -8 0 -12 5 -9 10 3 6 10 10 16 10 5 0 9 -4 9 -10z m-2560 -9 c0 -6 -4
-13 -10 -16 -5 -3 -10 1 -10 9 0 9 5 16 10 16 6 0 10 -4 10 -9z m1840 -41
c-20 -13 -33 -13 -25 0 3 6 14 10 23 10 15 0 15 -2 2 -10z m-495 -9 c10 -17
-12 -21 -25 -6 -10 12 -10 15 3 15 9 0 18 -4 22 -9z m225 -56 c0 -8 -4 -15
-10 -15 -5 0 -10 7 -10 15 0 8 5 15 10 15 6 0 10 -7 10 -15z m90 -9 c0 -2 -7
-6 -15 -10 -8 -3 -15 -1 -15 4 0 6 7 10 15 10 8 0 15 -2 15 -4z m-55 -26 c-3
-5 -11 -10 -16 -10 -6 0 -7 5 -4 10 3 6 11 10 16 10 6 0 7 -4 4 -10z m-48 -37
c-9 -9 -19 -14 -23 -11 -10 10 6 28 24 28 15 0 15 -1 -1 -17z m-297 3 c0 -3
-4 -8 -10 -11 -5 -3 -10 -1 -10 4 0 6 5 11 10 11 6 0 10 -2 10 -4z m70 -30 c0
-11 -19 -15 -25 -6 -3 5 1 10 9 10 9 0 16 -2 16 -4z m-3240 -13 c0 -10 -52
-34 -58 -28 -3 2 1 11 8 20 13 15 50 21 50 8z m2196 -38 c30 -15 29 -17 -21
-20 -16 -1 -43 -5 -59 -10 -22 -6 -27 -5 -21 5 5 9 49 33 71 40 1 0 15 -7 30
-15z m-1797 -68 c-5 -21 -7 -46 -4 -57 3 -11 1 -28 -4 -39 -13 -23 -5 -51 15
-51 8 0 14 -5 14 -12 0 -6 -3 -9 -6 -5 -4 3 -12 0 -20 -7 -16 -17 -104 0 -104
20 0 7 -12 26 -26 43 l-26 31 29 10 c64 23 133 76 133 102 0 6 2 9 5 7 2 -3 0
-22 -6 -42z m3061 23 c0 -5 -2 -10 -4 -10 -3 0 -8 5 -11 10 -3 6 -1 10 4 10 6
0 11 -4 11 -10z m-249 -55 c7 5 6 -1 -2 -16 -12 -21 -14 -22 -17 -6 -3 13 -10
17 -23 14 -17 -5 -18 -3 -8 9 9 11 15 11 25 3 7 -6 18 -8 25 -4z m-2480 -25
c23 0 35 -20 19 -30 -14 -9 -10 -21 16 -58 17 -23 17 -23 -7 -12 -29 14 -69
73 -69 103 0 16 3 18 12 9 7 -7 20 -12 29 -12z m216 -82 c28 -26 23 -35 -9
-14 -12 8 -49 22 -82 30 -57 15 -86 31 -86 46 0 14 154 -41 177 -62z m-706 21
l22 -31 -41 7 c-47 8 -127 -17 -136 -42 -4 -9 -13 -13 -21 -9 -9 3 -18 -1 -21
-9 -4 -8 -13 -15 -21 -15 -8 0 -11 -4 -8 -10 3 -5 2 -10 -4 -10 -6 0 -8 -7 -5
-15 7 -17 3 -18 -21 -9 -9 4 -12 10 -7 13 5 3 12 19 16 35 6 26 5 28 -8 17 -9
-7 -13 -18 -9 -25 3 -6 0 -5 -8 2 -24 23 48 77 129 97 54 14 107 29 119 34 1
1 12 -13 24 -30z m2739 -83 c0 -3 -4 -8 -10 -11 -5 -3 -10 -1 -10 4 0 6 5 11
10 11 6 0 10 -2 10 -4z m-1720 -57 c9 -16 8 -18 -12 -10 -16 6 -28 3 -42 -11
-11 -10 -27 -18 -35 -18 -9 0 -36 -11 -61 -23 l-44 -23 -19 34 c-10 19 -17 35
-15 36 17 10 119 46 138 48 35 5 79 -11 90 -33z m1729 -12 c0 -27 -2 -29 -9
-12 -12 28 -12 57 0 50 6 -3 10 -21 9 -38z m-1079 23 c0 -5 -5 -10 -11 -10 -5
0 -7 5 -4 10 3 6 8 10 11 10 2 0 4 -4 4 -10z m-18 -55 c-2 -14 -9 -25 -14 -25
-6 0 -7 7 -4 16 3 9 6 22 6 30 0 9 4 13 9 10 4 -3 6 -17 3 -31z m28 -15 c-16
-31 -23 -19 -9 16 6 16 13 24 16 17 2 -7 -1 -22 -7 -33z m-70 10 c0 -5 -2 -10
-4 -10 -3 0 -8 5 -11 10 -3 6 -1 10 4 10 6 0 11 -4 11 -10z m-10 -30 c0 -5 -4
-10 -10 -10 -5 0 -10 5 -10 10 0 6 5 10 10 10 6 0 10 -4 10 -10z m1401 -60
c11 -6 19 -21 19 -36 0 -21 -2 -23 -12 -12 -18 19 -39 58 -32 58 3 0 14 -5 25
-10z m-1541 -40 c0 -5 -4 -10 -10 -10 -5 0 -10 5 -10 10 0 6 5 10 10 10 6 0
10 -4 10 -10z m1115 -130 c8 -16 15 -37 14 -47 0 -16 -36 49 -38 70 -2 16 9 6
24 -23z m507 9 c17 -9 18 -13 7 -20 -8 -5 -26 -9 -41 -9 -15 0 -30 -4 -33 -10
-3 -5 -18 -10 -33 -9 l-27 1 31 13 c17 8 36 21 43 29 16 19 25 20 53 5z m-122
-94 c6 -3 10 -2 10 3 0 14 51 25 62 14 5 -5 6 -17 2 -26 -6 -14 -14 -17 -42
-12 -43 6 -68 32 -76 77 -7 34 -7 34 14 -8 11 -23 25 -45 30 -48z m-444 -17
c-2 -29 -5 -56 -5 -60 -1 -5 -12 -8 -26 -8 -14 0 -25 -4 -25 -9 0 -5 -23 -43
-51 -85 -49 -72 -51 -79 -46 -125 8 -65 -16 -100 -107 -162 -92 -63 -166 -137
-166 -167 0 -13 -7 -30 -15 -38 -18 -18 -19 -15 -4 22 l10 28 -22 -19 c-12
-11 -48 -58 -81 -105 -68 -96 -69 -72 -2 34 30 47 41 73 34 80 -5 5 -10 20
-10 32 0 13 -7 29 -15 38 -8 8 -13 21 -10 29 3 7 -13 50 -35 95 -31 61 -45 79
-57 75 -13 -5 -14 -3 -3 17 8 15 9 25 2 29 -6 3 -13 23 -17 44 -4 22 -13 37
-21 37 -8 0 -19 12 -24 26 -14 35 -12 44 5 38 10 -4 15 0 15 15 0 12 5 21 10
21 6 0 10 -6 10 -14 0 -21 27 -40 33 -24 4 8 6 6 6 -5 1 -9 13 -35 27 -57 23
-34 28 -37 45 -27 14 9 29 8 65 -1 38 -10 49 -10 57 0 6 9 7 7 3 -6 -5 -15 -2
-17 19 -12 14 4 25 3 25 -2 0 -5 15 -13 33 -19 28 -8 36 -7 46 6 11 14 11 14
7 -2 -6 -17 -5 -17 26 0 66 38 136 114 190 205 30 51 58 101 61 111 12 32 17
17 13 -35z m1329 32 c-10 -11 -20 -18 -23 -15 -7 6 18 35 31 35 5 0 2 -9 -8
-20z m-1211 -60 l7 -25 -15 25 c-17 28 -21 50 -7 35 5 -6 12 -21 15 -35z m-85
-52 c1 -10 -3 -18 -9 -18 -5 0 -10 19 -9 43 1 36 2 38 9 17 4 -14 8 -33 9 -42z
m256 34 c11 -3 22 -8 25 -11 8 -10 69 -51 75 -51 4 0 52 -35 184 -135 14 -11
37 -30 51 -42 14 -13 29 -23 33 -23 13 0 99 -62 125 -89 12 -13 22 -31 22 -40
0 -12 -6 -9 -20 9 -10 14 -22 22 -26 18 -4 -4 -1 -14 6 -23 7 -8 9 -15 5 -15
-5 0 0 -9 10 -20 17 -19 17 -19 -9 -7 -14 7 -26 18 -26 25 0 8 -9 16 -20 19
-11 3 -20 10 -20 15 0 16 -43 47 -66 48 -12 0 -27 7 -34 15 -15 18 -7 19 22 4
39 -21 31 2 -16 47 -36 34 -53 43 -69 39 -18 -5 -19 -4 -7 5 13 9 13 11 0 19
-8 5 -66 46 -128 90 -63 45 -116 81 -119 81 -3 0 -17 10 -31 22 -20 15 -22 19
-7 13 11 -4 29 -10 40 -13z m-2352 -77 c-9 -19 -14 -38 -10 -41 3 -4 29 10 57
30 34 25 60 36 83 35 l32 -1 -31 -9 c-17 -5 -37 -15 -43 -23 -7 -8 -18 -13
-25 -10 -21 8 -12 -33 13 -60 19 -21 20 -24 6 -30 -30 -11 -64 -6 -74 12 -6 9
-11 13 -12 7 0 -5 -6 10 -12 34 -7 25 -19 46 -27 49 -13 3 -13 2 -1 -6 10 -7
4 -10 -23 -10 -21 0 -35 3 -31 6 15 15 82 50 97 51 17 1 17 -1 1 -34z m2397
-19 c0 -3 -4 -8 -10 -11 -5 -3 -10 -1 -10 4 0 6 5 11 10 11 6 0 10 -2 10 -4z
m-2290 -30 c0 -3 -4 -8 -10 -11 -5 -3 -10 -1 -10 4 0 6 5 11 10 11 6 0 10 -2
10 -4z m2270 -16 c0 -11 -4 -20 -9 -20 -11 0 -22 26 -14 34 12 12 23 5 23 -14z
m-2780 -41 c0 -5 -4 -9 -10 -9 -5 0 -10 7 -10 16 0 8 5 12 10 9 6 -3 10 -10
10 -16z m659 -13 c-2 -2 -20 -1 -39 2 l-35 6 35 6 c30 4 51 -3 39 -14z m2041
-16 l20 -20 -26 -25 c-14 -13 -23 -28 -20 -33 3 -6 -1 -15 -9 -22 -13 -11 -14
-8 -10 16 3 16 8 46 11 67 3 20 8 37 10 37 2 0 13 -9 24 -20z m20 10 c0 -5 -5
-10 -11 -10 -5 0 -7 5 -4 10 3 6 8 10 11 10 2 0 4 -4 4 -10z m60 -30 c0 -14
28 -12 33 3 8 23 18 0 11 -27 -6 -27 -34 -37 -34 -12 0 7 -10 21 -22 29 -19
13 -20 16 -5 16 9 1 17 -3 17 -9z m-2760 -10 c0 -5 -5 -10 -11 -10 -5 0 -7 5
-4 10 3 6 8 10 11 10 2 0 4 -4 4 -10z m3037 -20 c14 -11 22 -20 17 -20 -12 1
-61 39 -51 40 5 0 20 -9 34 -20z m-299 -7 c-2 -9 -8 -18 -15 -20 -7 -3 -9 3
-6 16 6 25 26 28 21 4z m846 -12 c-5 -3 -16 -15 -24 -26 -15 -19 -14 -19 10
-2 25 17 65 22 94 11 14 -5 13 -9 -4 -31 -11 -14 -20 -32 -20 -40 0 -10 -6
-13 -16 -9 -9 3 -33 6 -55 6 -28 0 -39 4 -39 15 0 12 -4 13 -25 3 -14 -6 -28
-8 -32 -4 -10 10 75 89 87 81 6 -3 10 -1 10 5 0 6 5 8 11 4 6 -3 7 -9 3 -13z
m-1754 -51 c0 -5 -5 -10 -11 -10 -5 0 -7 5 -4 10 3 6 8 10 11 10 2 0 4 -4 4
-10z m770 -52 c0 -19 -15 -24 -24 -10 -3 5 -2 19 1 31 4 17 8 19 14 9 5 -7 9
-21 9 -30z m420 38 c0 -2 -7 -7 -16 -10 -8 -3 -12 -2 -9 4 6 10 25 14 25 6z
m790 -82 c12 -19 20 -37 17 -40 -5 -5 -57 58 -57 69 0 18 21 3 40 -29z m-105
-2 c-3 -3 -11 0 -18 7 -9 10 -8 11 6 5 10 -3 15 -9 12 -12z m82 -54 c21 -24
37 -48 31 -48 -2 0 -19 16 -38 35 -19 19 -29 35 -24 35 6 0 20 -10 31 -22z
m-471 -55 c-7 -7 -26 7 -26 19 0 6 6 6 15 -2 9 -7 13 -15 11 -17z m553 -57
c-3 -3 -11 5 -18 17 -13 21 -12 21 5 5 10 -10 16 -20 13 -22z m-1575 -51 c4
-11 -2 -15 -26 -15 -26 0 -29 2 -18 15 7 8 18 15 25 15 7 0 15 -7 19 -15z
m1091 -5 c3 -5 1 -10 -4 -10 -6 0 -11 5 -11 10 0 6 2 10 4 10 3 0 8 -4 11 -10z
m692 -6 c2 -6 -9 -11 -26 -11 -21 0 -28 4 -24 14 6 16 45 14 50 -3z m-677 -24
c0 -5 -2 -10 -4 -10 -3 0 -8 5 -11 10 -3 6 -1 10 4 10 6 0 11 -4 11 -10z m594
-11 c-3 -5 -17 -9 -32 -9 -25 1 -26 2 -9 15 20 14 51 10 41 -6z m-3054 -75 c0
-8 -4 -12 -10 -9 -5 3 -10 10 -10 16 0 5 5 9 10 9 6 0 10 -7 10 -16z m2938
-95 c-11 -7 -10 -11 2 -19 11 -7 12 -12 3 -21 -9 -9 -13 -6 -19 15 -3 14 -10
26 -16 26 -5 0 -7 4 -4 9 3 5 15 7 27 4 16 -4 18 -8 7 -14z m-2971 -171 c-3
-7 -5 -2 -5 12 0 14 2 19 5 13 2 -7 2 -19 0 -25z m2443 -46 c0 -16 -9 -38 -20
-50 -12 -12 -16 -23 -10 -27 16 -10 12 -29 -20 -97 -16 -36 -34 -86 -41 -114
-6 -27 -13 -55 -15 -62 -5 -20 -36 -27 -48 -11 -6 8 -30 15 -54 16 -49 1 -55
4 -47 24 8 21 62 42 90 35 18 -5 25 -1 30 14 3 11 4 24 1 29 -3 5 6 21 20 36
14 15 23 30 19 33 -3 3 -12 -3 -20 -15 -13 -18 -39 -22 -100 -14 -5 1 1 11 14
21 13 11 19 20 15 20 -5 1 2 7 16 15 14 8 19 14 11 15 -8 0 6 13 32 30 26 16
47 34 47 40 0 5 5 10 11 10 14 0 39 25 39 39 0 6 5 11 10 11 6 0 10 7 10 15 0
8 2 15 5 15 3 0 5 -13 5 -28z m-2677 -246 c11 4 17 1 17 -9 0 -20 -22 -35 -28
-19 -2 7 -8 10 -13 6 -5 -3 -9 5 -9 18 0 16 3 19 8 10 5 -7 16 -10 25 -6z
m897 4 c0 -5 -4 -10 -10 -10 -5 0 -10 5 -10 10 0 6 5 10 10 10 6 0 10 -4 10
-10z m-285 -60 c3 -5 1 -18 -4 -27 -9 -16 -10 -15 -11 7 0 20 -2 22 -10 10 -8
-13 -10 -12 -10 3 0 18 25 24 35 7z m39 -6 c4 -9 4 -19 1 -22 -3 -3 -5 1 -5 9
0 12 -2 11 -10 -1 -7 -12 -9 -10 -7 8 2 26 12 29 21 6z m-244 -18 c0 -3 -4 -8
-10 -11 -5 -3 -10 -1 -10 4 0 6 5 11 10 11 6 0 10 -2 10 -4z m391 -33 c-8 -15
-10 -15 -11 -2 0 17 10 32 18 25 2 -3 -1 -13 -7 -23z m1956 -19 c-3 -3 -12 -4
-19 -1 -8 3 -5 6 6 6 11 1 17 -2 13 -5z m-193 -42 c-1 -32 -10 -52 -25 -52
-10 0 -7 33 6 63 11 26 20 21 19 -11z m-1837 -14 c-3 -8 -6 -5 -6 6 -1 11 2
17 5 13 3 -3 4 -12 1 -19z m-347 -8 c0 -5 -5 -10 -11 -10 -5 0 -7 5 -4 10 3 6
8 10 11 10 2 0 4 -4 4 -10z m-665 -80 c-3 -5 -11 -10 -16 -10 -6 0 -7 5 -4 10
3 6 11 10 16 10 6 0 7 -4 4 -10z m1675 -152 c0 -7 -11 -14 -25 -14 -31 -2 -33
13 -2 19 12 2 23 5 25 6 1 0 2 -5 2 -11z m1015 -8 c-3 -5 -12 -10 -18 -10 -7
0 -6 4 3 10 19 12 23 12 15 0z m128 -70 c-2 -27 0 -50 4 -50 4 0 19 11 33 25
20 19 39 26 81 29 30 2 59 0 64 -4 6 -5 35 -15 65 -24 30 -9 62 -21 70 -26 13
-9 13 -12 0 -23 -8 -7 -30 -41 -49 -77 -19 -36 -40 -72 -47 -81 -8 -8 -14 -21
-14 -27 0 -6 -10 -18 -23 -26 -12 -9 -40 -39 -61 -68 -22 -29 -52 -70 -68 -90
-33 -43 -36 -68 -9 -68 11 0 46 -15 80 -34 33 -19 68 -36 77 -38 10 -2 17 -7
17 -13 -1 -5 4 -16 10 -23 15 -19 -58 -5 -98 18 -81 47 -128 70 -194 94 -129
47 -171 77 -171 125 0 9 97 33 135 32 56 -1 124 26 125 50 0 3 -24 7 -52 8
-29 1 -67 7 -85 13 -29 11 -34 9 -51 -10 -42 -48 -56 -13 -22 51 22 40 25 73
11 110 -8 20 -4 30 20 56 32 36 36 46 14 37 -9 -3 -15 0 -15 9 0 11 5 12 25 5
20 -7 25 -6 25 5 0 8 5 15 10 15 6 0 23 11 38 25 44 41 60 34 55 -25z m-103
31 c0 -5 -7 -11 -15 -15 -15 -5 -20 5 -8 17 9 10 23 9 23 -2z m-835 -61 c3 -5
1 -10 -4 -10 -6 0 -11 5 -11 10 0 6 2 10 4 10 3 0 8 -4 11 -10z m-1705 -25
c-7 -9 -15 -13 -19 -10 -3 3 1 10 9 15 21 14 24 12 10 -5z m2477 -1 c-3 -3
-12 -4 -19 -1 -8 3 -5 6 6 6 11 1 17 -2 13 -5z m-807 -44 c-20 -13 -43 -13
-35 0 3 6 16 10 28 10 18 0 19 -2 7 -10z m290 -20 c0 -17 -32 -40 -56 -40 -12
0 -2 34 14 46 25 19 42 17 42 -6z m-927 -7 c27 -8 20 -24 -8 -17 -14 3 -31 1
-39 -5 -11 -9 -13 -7 -11 11 3 31 3 31 23 23 9 -4 25 -10 35 -12z m-622 -16
c-10 -9 -11 -8 -5 6 3 10 9 15 12 12 3 -3 0 -11 -7 -18z m1179 -5 c0 -5 10
-13 22 -19 l22 -10 -22 -5 c-15 -4 -22 -2 -22 8 0 8 -4 14 -10 14 -5 0 -10 5
-10 10 0 6 5 10 10 10 6 0 10 -4 10 -8z m-580 -17 c0 -8 -4 -15 -10 -15 -5 0
-7 7 -4 15 4 8 8 15 10 15 2 0 4 -7 4 -15z m880 5 c0 -5 -4 -10 -10 -10 -5 0
-10 5 -10 10 0 6 5 10 10 10 6 0 10 -4 10 -10z m-747 -21 c-6 -20 -3 -21 36
-17 38 3 41 2 41 -22 0 -22 -4 -25 -32 -25 -24 0 -33 -5 -36 -19 -4 -16 0 -18
27 -13 37 8 47 -7 36 -50 -5 -21 -8 -24 -16 -12 -7 12 -9 11 -9 -3 0 -10 -4
-18 -10 -18 -5 0 -10 8 -10 18 0 10 -7 27 -15 38 -14 19 -14 18 -15 -3 0 -26
-18 -31 -26 -8 -7 17 -24 20 -24 5 0 -14 -35 -47 -58 -54 -12 -4 -24 0 -32 9
-16 19 -5 32 30 37 22 3 25 9 28 48 3 39 9 50 44 78 22 17 42 32 43 32 2 0 1
-10 -2 -21z m841 -8 c4 -5 -3 -7 -14 -4 -23 6 -26 13 -6 13 8 0 17 -4 20 -9z
m-1562 -23 c-16 -16 -15 -31 1 -25 12 4 25 -41 46 -168 20 -119 24 -185 11
-200 -13 -16 -34 -10 -24 6 3 6 -8 15 -25 22 -20 7 -34 21 -38 37 -3 13 -15
33 -25 44 -10 11 -18 25 -18 32 0 6 -11 15 -25 18 -16 4 -23 11 -19 18 5 8 2
9 -10 5 -10 -4 -16 -3 -14 1 70 168 92 209 116 219 31 11 41 8 24 -9z m853 12
c3 -5 -1 -10 -9 -10 -9 0 -16 5 -16 10 0 6 4 10 9 10 6 0 13 -4 16 -10z m50
-10 c-3 -5 -12 -10 -18 -10 -7 0 -6 4 3 10 19 12 23 12 15 0z m624 -12 c12 7
21 9 21 4 0 -15 -37 -30 -63 -25 -30 6 -33 13 -15 31 9 9 14 7 24 -6 11 -14
16 -15 33 -4z m-384 -31 c-10 -8 -15 -19 -11 -25 8 -14 -3 -15 -22 -3 -19 11
-17 19 10 41 14 11 27 15 32 9 6 -5 3 -14 -9 -22z m88 14 c-5 -20 -31 -36 -41
-26 -6 5 28 43 40 44 3 1 4 -8 1 -18z m-382 -14 c-10 -9 -11 -8 -5 6 3 10 9
15 12 12 3 -3 0 -11 -7 -18z m62 -18 c-4 -15 -9 -17 -17 -9 -8 8 -7 13 4 20 8
5 16 10 17 10 0 0 -1 -9 -4 -21z m172 1 c3 -5 1 -10 -4 -10 -6 0 -11 5 -11 10
0 6 2 10 4 10 3 0 8 -4 11 -10z m-125 -14 c0 -3 -4 -8 -10 -11 -5 -3 -10 -1
-10 4 0 6 5 11 10 11 6 0 10 -2 10 -4z m150 -16 c0 -5 -2 -10 -4 -10 -3 0 -8
5 -11 10 -3 6 -1 10 4 10 6 0 11 -4 11 -10z m35 -9 c-3 -6 3 -14 12 -20 14 -8
15 -10 3 -11 -8 0 -22 5 -30 10 -13 9 -13 11 0 20 19 12 23 12 15 1z m210 -1
c3 -5 2 -10 -4 -10 -5 0 -13 5 -16 10 -3 6 -2 10 4 10 5 0 13 -4 16 -10z
m-410 -10 c-3 -5 -10 -10 -16 -10 -5 0 -9 5 -9 10 0 6 7 10 16 10 8 0 12 -4 9
-10z m263 -36 c-10 -10 -28 6 -28 24 0 15 1 15 17 -1 9 -9 14 -19 11 -23z
m-223 17 c3 -5 1 -12 -5 -16 -5 -3 -10 1 -10 9 0 18 6 21 15 7z m187 -25 c13
-19 9 -26 -13 -26 -12 0 -30 -10 -40 -22 l-19 -21 7 34 c3 18 11 39 17 45 12
12 36 7 48 -10z m-392 -37 c0 -11 -4 -18 -9 -15 -17 11 -81 15 -86 6 -9 -15
-37 -12 -32 3 2 6 12 11 21 11 9 -1 16 1 16 5 0 3 20 7 45 8 39 1 45 -1 45
-18z m161 -12 c-10 -9 -11 -8 -5 6 3 10 9 15 12 12 3 -3 0 -11 -7 -18z m-167
-28 c-7 -11 -64 -12 -64 -1 0 15 9 19 40 14 16 -2 27 -8 24 -13z m511 11 c3
-5 1 -10 -4 -10 -6 0 -11 5 -11 10 0 6 2 10 4 10 3 0 8 -4 11 -10z m155 -15
c-7 -8 -16 -15 -21 -15 -5 0 -6 7 -3 15 4 8 13 15 21 15 13 0 13 -3 3 -15z
m-40 -27 c0 -16 -3 -19 -11 -11 -6 6 -8 16 -5 22 11 17 16 13 16 -11z m-84
-24 c-4 -9 -9 -15 -11 -12 -3 3 -3 13 1 22 4 9 9 15 11 12 3 -3 3 -13 -1 -22z
m194 16 c-13 -9 -13 -11 0 -20 8 -5 10 -10 4 -10 -15 0 -36 25 -27 33 3 4 13
7 22 7 14 0 14 -2 1 -10z m-60 -8 c0 -5 -9 -17 -20 -27 -22 -20 -28 -4 -7 20
14 16 27 19 27 7z m-680 -34 c0 -4 -7 -8 -15 -8 -8 0 -15 4 -15 8 0 5 7 9 15
9 8 0 15 -4 15 -9z m-10 -63 c0 -28 -3 -29 -31 -15 -28 15 -24 40 6 40 20 0
25 -5 25 -25z m740 21 c0 -2 -7 -9 -15 -16 -12 -10 -15 -10 -15 4 0 9 7 16 15
16 8 0 15 -2 15 -4z m-47 -36 c-4 -16 -8 -18 -20 -9 -11 10 -11 14 -1 20 21
14 26 10 21 -11z m-1373 -20 c0 -5 -4 -10 -10 -10 -5 0 -10 5 -10 10 0 6 5 10
10 10 6 0 10 -4 10 -10z m680 -29 c0 -27 -17 -35 -23 -11 -5 19 0 30 15 30 4
0 8 -9 8 -19z m-690 5 c0 -3 -4 -8 -10 -11 -5 -3 -10 -1 -10 4 0 6 5 11 10 11
6 0 10 -2 10 -4z m1054 -41 c4 -11 -1 -14 -20 -13 -23 2 -24 4 -8 15 22 16 21
16 28 -2z m-277 -10 c0 -8 -6 -16 -14 -19 -11 -4 -11 -1 -3 14 13 24 17 25 17
5z m213 -5 c0 -5 -5 -10 -11 -10 -5 0 -7 5 -4 10 3 6 8 10 11 10 2 0 4 -4 4
-10z m51 -42 c4 -16 3 -28 -2 -28 -5 0 -9 -6 -9 -14 0 -14 -21 -26 -46 -26 -9
0 -13 11 -12 35 1 27 6 35 20 35 10 0 18 -7 18 -17 0 -15 2 -16 10 -3 7 11 5
18 -5 26 -20 15 -19 26 2 22 9 -2 20 -15 24 -30z m327 12 c6 0 12 -5 12 -11 0
-7 -10 -9 -25 -5 -14 4 -25 2 -25 -4 0 -16 -48 -43 -65 -36 -26 9 41 69 69 62
11 -3 27 -6 34 -6z m-178 -20 c0 -5 -7 -10 -16 -10 -8 0 -12 5 -9 10 3 6 10
10 16 10 5 0 9 -4 9 -10z m-352 -14 c-7 -7 -19 -11 -26 -8 -11 4 -11 6 0 13 7
5 19 9 26 9 10 0 10 -3 0 -14z m-88 -21 c0 -8 -4 -15 -10 -15 -5 0 -10 7 -10
15 0 8 5 15 10 15 6 0 10 -7 10 -15z m60 -24 c0 -10 -6 -21 -13 -24 -16 -6
-19 25 -3 35 15 11 16 10 16 -11z m134 -30 c-10 -10 -21 -17 -23 -15 -6 6 20
34 32 34 6 0 2 -8 -9 -19z"/>
<path d="M417 4659 c-10 -11 -22 -17 -27 -14 -6 4 -10 2 -10 -4 0 -6 9 -15 19
-21 24 -13 41 -13 21 0 -12 7 -11 13 10 34 13 15 19 26 14 25 -5 0 -17 -9 -27
-20z"/>
<path d="M571 4580 c0 -33 1 -34 10 -11 6 16 6 28 -1 35 -7 7 -10 -1 -9 -24z"/>
<path d="M425 4580 c3 -5 8 -10 11 -10 2 0 4 5 4 10 0 6 -5 10 -11 10 -5 0 -7
-4 -4 -10z"/>
<path d="M370 4566 c0 -8 11 -17 25 -20 14 -4 25 -11 25 -16 0 -5 7 -7 15 -4
21 8 3 29 -36 43 -23 8 -29 7 -29 -3z"/>
<path d="M615 4530 c-3 -5 -1 -10 4 -10 6 0 11 5 11 10 0 6 -2 10 -4 10 -3 0
-8 -4 -11 -10z"/>
<path d="M725 4500 c-3 -5 -2 -10 4 -10 5 0 13 5 16 10 3 6 2 10 -4 10 -5 0
-13 -4 -16 -10z"/>
<path d="M628 4440 c2 -22 6 -40 8 -40 2 0 4 18 4 40 0 22 -3 40 -8 40 -4 0
-6 -18 -4 -40z"/>
<path d="M2217 3823 c-4 -3 -7 -24 -7 -46 0 -33 2 -37 14 -28 8 6 16 20 19 30
5 19 -16 55 -26 44z"/>
<path d="M2310 3721 c0 -6 5 -13 10 -16 6 -3 10 1 10 9 0 9 -4 16 -10 16 -5 0
-10 -4 -10 -9z"/>
<path d="M2275 3700 c-3 -5 -1 -10 4 -10 6 0 11 5 11 10 0 6 -2 10 -4 10 -3 0
-8 -4 -11 -10z"/>
<path d="M2600 3700 c0 -5 5 -10 11 -10 5 0 7 5 4 10 -3 6 -8 10 -11 10 -2 0
-4 -4 -4 -10z"/>
<path d="M2515 3654 c-8 -43 0 -54 22 -31 12 12 13 17 4 17 -8 0 -10 7 -6 19
3 11 2 22 -3 25 -6 3 -13 -10 -17 -30z"/>
<path d="M2265 3670 c-3 -5 -1 -10 4 -10 6 0 11 5 11 10 0 6 -2 10 -4 10 -3 0
-8 -4 -11 -10z"/>
<path d="M2325 3634 c-4 -16 -8 -35 -11 -42 -2 -7 0 -11 5 -7 11 6 25 64 17
72 -3 3 -8 -8 -11 -23z"/>
<path d="M2286 3594 c-4 -9 -4 -19 -1 -22 2 -3 7 3 11 12 4 9 4 19 1 22 -2 3
-7 -3 -11 -12z"/>
<path d="M2370 3524 c-17 -44 9 -162 38 -172 17 -5 5 140 -14 176 l-13 26 -11
-30z"/>
<path d="M2246 3519 c-11 -35 -15 -79 -7 -79 5 0 11 19 13 43 5 43 2 61 -6 36z"/>
<path d="M2338 3490 c-7 -24 -3 -38 8 -28 3 4 4 17 2 30 l-3 23 -7 -25z"/>
<path d="M2205 3450 c-3 -5 -1 -10 4 -10 6 0 11 5 11 10 0 6 -2 10 -4 10 -3 0
-8 -4 -11 -10z"/>
<path d="M2296 3409 c-8 -42 -7 -57 3 -39 14 25 22 70 12 70 -4 0 -11 -14 -15
-31z"/>
<path d="M2196 3395 c-4 -19 -13 -35 -20 -35 -8 0 -16 -11 -18 -25 -3 -14 -1
-25 3 -25 5 0 9 9 9 21 0 14 5 19 14 16 9 -4 16 8 23 39 6 24 7 44 3 44 -4 0
-11 -16 -14 -35z"/>
<path d="M2232 3410 c0 -14 2 -19 5 -12 2 6 2 18 0 25 -3 6 -5 1 -5 -13z"/>
<path d="M2266 3378 c-3 -13 -6 -34 -7 -48 0 -23 -1 -23 -9 -5 -9 19 -9 19
-16 -2 -3 -13 -10 -20 -15 -17 -5 3 -13 -5 -18 -18 -6 -13 -10 -16 -11 -8 0
13 -1 13 -10 0 -5 -8 -10 -42 -10 -75 1 -51 2 -57 12 -40 7 11 11 36 10 55 -1
31 0 32 8 10 4 -14 9 -22 10 -17 6 17 8 28 10 50 1 12 4 17 7 10 3 -8 13 -3
29 14 18 19 24 37 24 69 0 49 -5 56 -14 22z"/>
<path d="M2100 3318 c0 -16 5 -28 10 -28 13 0 13 20 0 40 -8 12 -10 9 -10 -12z"/>
<path d="M2098 3260 c-4 -14 -8 -34 -8 -45 1 -19 1 -19 11 -2 6 10 9 30 7 45
l-3 27 -7 -25z"/>
<path d="M2144 3225 c-3 -19 -11 -33 -17 -32 -6 1 -13 -8 -15 -20 -2 -13 -8
-23 -14 -23 -7 0 -9 -19 -6 -51 4 -39 2 -49 -8 -45 -10 4 -14 -4 -13 -27 1
-27 2 -29 7 -9 4 13 12 23 17 22 6 0 11 8 13 20 2 11 8 18 13 15 5 -4 9 10 9
29 0 20 5 36 11 36 6 0 9 -7 5 -15 -3 -8 -1 -15 4 -15 6 0 10 33 10 75 0 81
-5 95 -16 40z m-24 -115 c0 -11 -2 -20 -4 -20 -2 0 -6 9 -9 20 -3 11 -1 20 4
20 5 0 9 -9 9 -20z"/>
<path d="M2071 2974 c0 -11 3 -14 6 -6 3 7 2 16 -1 19 -3 4 -6 -2 -5 -13z"/>
<path d="M1990 2805 c-14 -16 -3 -20 19 -6 8 5 9 11 3 15 -5 3 -15 -1 -22 -9z"/>
<path d="M2304 2694 c7 -82 6 -88 -19 -126 -26 -38 -26 -44 -16 -92 7 -28 12
-57 13 -63 1 -7 10 -21 21 -30 19 -17 20 -17 15 5 -4 12 -2 22 3 22 5 0 9 11
9 25 0 14 7 42 15 62 21 49 20 159 -1 167 -10 4 -15 16 -14 33 4 62 0 83 -16
83 -15 0 -16 -10 -10 -86z"/>
<path d="M3610 2421 c0 -6 5 -13 10 -16 6 -3 10 1 10 9 0 9 -4 16 -10 16 -5 0
-10 -4 -10 -9z"/>
<path d="M3580 2340 c0 -5 5 -10 10 -10 6 0 10 5 10 10 0 6 -4 10 -10 10 -5 0
-10 -4 -10 -10z"/>
<path d="M3500 2326 c0 -2 11 -6 25 -8 13 -3 22 -1 19 3 -5 9 -44 13 -44 5z"/>
<path d="M3501 2294 c0 -11 3 -14 6 -6 3 7 2 16 -1 19 -3 4 -6 -2 -5 -13z"/>
<path d="M1607 2240 c3 -11 7 -20 9 -20 2 0 4 9 4 20 0 11 -4 20 -9 20 -5 0
-7 -9 -4 -20z"/>
<path d="M3573 2201 c-12 -10 -20 -21 -16 -24 5 -6 -33 -67 -50 -78 -5 -4 -3
-10 3 -14 10 -6 9 -11 -5 -22 -11 -7 -13 -13 -7 -13 7 0 12 -4 12 -10 0 -5 -6
-7 -14 -4 -8 3 -17 1 -21 -5 -3 -6 0 -11 7 -11 10 0 10 -2 -1 -9 -8 -5 -10
-14 -5 -22 4 -7 9 -25 10 -38 2 -18 0 -21 -5 -12 -7 11 -10 9 -15 -6 -4 -11
-20 -35 -36 -53 -17 -19 -30 -40 -30 -47 0 -7 -4 -13 -10 -13 -5 0 -71 -61
-147 -135 -75 -74 -139 -135 -143 -135 -21 0 -60 -28 -60 -43 0 -10 -4 -15
-10 -12 -5 3 -10 0 -10 -8 0 -8 -11 -22 -25 -31 -14 -9 -22 -22 -19 -30 3 -8
0 -25 -7 -38 -13 -24 -104 -118 -115 -118 -6 0 -93 -68 -109 -86 -5 -6 -34
-26 -62 -44 -29 -18 -53 -37 -53 -41 0 -10 27 -19 57 -19 17 0 24 -5 21 -17
-2 -9 -6 -16 -11 -16 -4 1 -39 7 -77 13 -73 12 -99 8 -81 -14 6 -7 8 -15 5
-19 -3 -3 3 -10 14 -16 11 -6 22 -7 26 -4 3 3 6 -18 6 -47 0 -43 3 -51 13 -41
6 6 12 17 12 23 0 14 33 20 40 8 3 -5 12 -7 20 -4 7 3 22 1 34 -5 15 -9 23 -7
36 5 9 9 14 23 11 31 -3 8 1 27 9 43 8 16 12 37 8 47 -3 10 -3 15 2 11 4 -4
18 6 32 22 13 16 30 27 37 24 7 -3 26 2 42 11 16 8 34 15 39 15 6 0 24 12 40
28 17 15 41 33 55 40 51 26 75 42 85 55 5 8 17 13 27 11 14 -2 58 37 58 52 0
3 16 25 36 50 20 24 34 50 31 58 -3 8 1 20 10 27 8 7 25 36 37 64 13 27 31 57
40 65 28 22 86 116 136 217 37 75 50 92 70 95 17 2 25 9 24 21 -1 9 4 17 12
17 8 0 14 7 14 15 0 8 5 15 11 15 15 0 40 27 44 48 1 9 10 16 19 16 9 -1 17 3
17 10 1 6 3 22 4 36 2 14 6 40 10 58 12 50 -12 42 -88 -31 -34 -32 -42 -30
-28 7 6 14 8 33 5 41 -4 9 0 15 9 15 12 0 27 19 27 36 0 11 -38 1 -57 -15z
m-3 -92 c0 -5 -4 -9 -10 -9 -5 0 -10 7 -10 16 0 8 5 12 10 9 6 -3 10 -10 10
-16z m-6 -31 c-3 -5 -12 -4 -20 3 -19 16 -18 18 6 12 11 -3 17 -9 14 -15z"/>
<path d="M3753 2130 l0 -50 21 43 c19 37 20 43 6 49 -25 11 -27 10 -27 -42z"/>
<path d="M3200 2020 c-12 -23 2 -27 19 -6 8 9 8 16 2 20 -6 4 -15 -3 -21 -14z"/>
<path d="M3220 1941 c-12 -24 -13 -31 -1 -31 5 0 11 11 13 25 6 30 2 32 -12 6z"/>
<path d="M2256 1743 c-9 -55 -7 -103 3 -103 9 0 19 40 25 103 2 25 -1 37 -9
37 -7 0 -15 -17 -19 -37z"/>
<path d="M2440 1740 c0 -5 5 -10 10 -10 6 0 10 5 10 10 0 6 -4 10 -10 10 -5 0
-10 -4 -10 -10z"/>
<path d="M2535 1731 c-3 -5 -1 -12 5 -16 5 -3 10 1 10 9 0 18 -6 21 -15 7z"/>
<path d="M2431 1683 c0 -31 2 -34 9 -18 12 28 12 55 0 55 -5 0 -10 -17 -9 -37z"/>
<path d="M2885 1640 c-3 -5 -1 -10 4 -10 6 0 11 5 11 10 0 6 -2 10 -4 10 -3 0
-8 -4 -11 -10z"/>
<path d="M2310 1620 c0 -5 5 -10 11 -10 5 0 7 5 4 10 -3 6 -8 10 -11 10 -2 0
-4 -4 -4 -10z"/>
<path d="M2450 1605 c0 -8 -4 -15 -10 -15 -16 0 -12 -28 6 -38 13 -7 14 -13 5
-31 -7 -11 -16 -21 -21 -21 -6 0 -10 -4 -10 -10 0 -12 66 -14 73 -2 8 12 -4
62 -13 57 -11 -7 -24 51 -15 65 3 5 1 10 -4 10 -6 0 -11 -7 -11 -15z"/>
<path d="M1790 1589 c0 -5 5 -7 10 -4 6 3 10 8 10 11 0 2 -4 4 -10 4 -5 0 -10
-5 -10 -11z"/>
<path d="M1821 1561 c-8 -5 -9 -11 -3 -15 5 -3 12 1 16 9 6 17 6 18 -13 6z"/>
<path d="M2183 1514 c-7 -20 6 -32 16 -15 6 9 11 10 15 2 11 -17 26 -13 26 7
0 23 -48 28 -57 6z"/>
<path d="M2085 1390 c-3 -6 1 -7 9 -4 18 7 21 14 7 14 -6 0 -13 -4 -16 -10z"/>
<path d="M3017 895 c-9 -23 11 -28 23 -5 8 16 8 20 -4 20 -7 0 -16 -7 -19 -15z"/>
<path d="M2640 870 c0 -5 5 -10 10 -10 6 0 10 5 10 10 0 6 -4 10 -10 10 -5 0
-10 -4 -10 -10z"/>
<path d="M2690 834 c0 -8 -5 -12 -10 -9 -14 8 -40 -13 -40 -32 0 -10 5 -11 16
-5 19 11 54 4 54 -10 0 -5 -4 -7 -9 -3 -6 3 -14 -3 -20 -13 -12 -23 5 -59 39
-81 13 -9 21 -11 17 -4 -4 6 -4 13 0 16 5 2 3 2 -4 1 -18 -4 -28 17 -13 26 7
4 9 13 6 19 -4 6 0 11 8 11 9 0 16 5 16 10 0 6 -4 10 -9 10 -5 0 -12 12 -16
27 -3 15 -12 32 -18 36 -7 5 -2 6 11 2 12 -3 22 -3 22 2 0 5 -11 10 -25 11
-17 1 -25 -3 -25 -14z"/>
<path d="M2535 830 c-29 -6 -29 -6 -6 -14 14 -5 27 -4 34 3 15 15 7 18 -28 11z"/>
<path d="M2731 635 c-1 -15 5 -20 24 -20 14 0 25 3 25 8 0 4 -9 7 -19 7 -11 0
-22 6 -24 13 -3 6 -6 3 -6 -8z"/>
<path d="M3910 2377 c14 -8 27 -12 30 -10 7 6 -23 23 -40 23 -8 0 -4 -6 10
-13z"/>
<path d="M4065 776 c-35 -15 -92 -19 -100 -6 -3 4 -16 3 -30 -3 -18 -9 -23
-17 -19 -31 3 -10 2 -16 -3 -13 -12 8 -25 -2 -46 -35 -9 -15 -13 -29 -8 -33
13 -7 54 10 70 29 7 9 20 16 27 16 8 0 14 4 14 8 0 5 17 6 38 3 30 -5 44 -2
74 19 65 45 54 77 -17 46z"/>
<path d="M1707 610 c-3 -11 -4 -20 -3 -20 1 0 9 9 19 20 13 15 14 20 3 20 -7
0 -16 -9 -19 -20z"/>
<path d="M2120 5024 c30 -7 502 -64 532 -64 20 0 28 4 22 9 -9 10 -476 62
-535 60 -19 -1 -27 -3 -19 -5z"/>
<path d="M2273 4973 c9 -2 25 -2 35 0 9 3 1 5 -18 5 -19 0 -27 -2 -17 -5z"/>
<path d="M2430 4950 c103 -17 275 -34 255 -25 -13 6 -322 45 -343 44 -9 -1 30
-9 88 -19z"/>
<path d="M2730 4786 c0 -2 9 -6 20 -9 11 -3 18 -1 14 4 -5 9 -34 13 -34 5z"/>
<path d="M2738 4753 c-10 -2 -18 -11 -18 -19 0 -12 3 -12 23 1 13 8 27 12 30
8 4 -3 7 -1 7 5 0 12 -11 13 -42 5z"/>
<path d="M2676 4501 c-26 -29 -15 -46 12 -21 22 21 29 40 14 40 -5 0 -17 -9
-26 -19z"/>
<path d="M2780 4509 c0 -5 5 -7 10 -4 6 3 10 8 10 11 0 2 -4 4 -10 4 -5 0 -10
-5 -10 -11z"/>
<path d="M4375 3890 c-3 -5 -1 -10 4 -10 6 0 11 5 11 10 0 6 -2 10 -4 10 -3 0
-8 -4 -11 -10z"/>
<path d="M4565 3810 c-8 -13 5 -13 25 0 13 8 13 10 -2 10 -9 0 -20 -4 -23 -10z"/>
<path d="M4702 3749 c2 -6 8 -10 13 -10 5 0 11 4 13 10 2 6 -4 11 -13 11 -9 0
-15 -5 -13 -11z"/>
<path d="M4589 3716 c-2 -2 -26 -7 -54 -10 -100 -13 -105 -15 -105 -47 0 -27
3 -29 43 -31 109 -4 174 -3 192 3 65 21 75 20 76 -3 0 -13 3 -18 5 -12 5 12
64 6 64 -6 0 -12 -98 -22 -118 -12 -30 16 -102 25 -102 13 0 -7 10 -15 22 -20
l23 -8 -24 -8 c-18 -5 -26 -3 -34 10 -8 14 -11 15 -18 4 -4 -8 -12 -14 -16
-15 -4 0 -16 -4 -26 -8 -9 -5 -28 -5 -41 -2 -20 5 -23 3 -19 -13 4 -16 10 -17
41 -10 49 11 72 11 72 -1 0 -5 -11 -10 -25 -10 -17 0 -23 -4 -19 -15 4 -8 10
-13 14 -10 5 3 12 1 15 -5 4 -6 -4 -10 -22 -8 -16 1 -38 -6 -51 -18 l-23 -19
23 -6 c13 -3 33 -2 46 2 21 8 22 6 22 -46 l0 -55 59 0 c48 0 60 3 64 18 4 15
5 15 6 -1 1 -18 10 -19 126 -15 74 3 130 9 137 16 6 6 13 64 16 139 l4 128
-103 0 -104 1 -3 27 c-2 15 -8 27 -13 27 -6 0 -8 4 -4 10 3 5 13 6 23 3 9 -3
14 -3 10 2 -11 11 -97 15 -124 5 -14 -6 -26 -6 -29 0 -6 10 -19 13 -26 6z m11
-220 c0 -3 -4 -8 -10 -11 -5 -3 -10 -1 -10 4 0 6 5 11 10 11 6 0 10 -2 10 -4z
m130 -16 c0 -5 -4 -10 -10 -10 -5 0 -10 5 -10 10 0 6 5 10 10 10 6 0 10 -4 10
-10z"/>
<path d="M4330 3640 c0 -5 5 -10 10 -10 6 0 10 5 10 10 0 6 -4 10 -10 10 -5 0
-10 -4 -10 -10z"/>
<path d="M4317 3599 c-19 -22 -43 -25 -50 -6 -3 9 -8 9 -17 1 -8 -8 -9 -14 -1
-18 19 -12 12 -26 -11 -26 -39 0 -67 11 -71 29 -3 14 -5 14 -12 -2 -5 -13 -2
-25 12 -39 20 -19 23 -19 72 -5 44 13 50 13 40 1 -20 -24 -4 -25 22 0 13 12
30 21 37 18 6 -2 12 1 12 7 0 6 -5 11 -11 11 -5 0 -7 5 -4 10 5 8 11 7 21 -1
24 -20 24 -5 0 18 -22 22 -23 22 -39 2z"/>
<path d="M4095 3560 c3 -5 8 -10 11 -10 2 0 4 5 4 10 0 6 -5 10 -11 10 -5 0
-7 -4 -4 -10z"/>
<path d="M4048 3528 c-41 -14 -34 -30 10 -23 66 12 76 16 61 26 -17 11 -36 10
-71 -3z"/>
<path d="M4405 3529 c-10 -15 1 -23 20 -15 9 3 13 10 10 16 -8 13 -22 13 -30
-1z"/>
<path d="M4126 3505 c-11 -9 -14 -15 -7 -15 7 0 19 7 27 15 20 19 5 19 -20 0z"/>
<path d="M4205 3490 c-3 -5 -1 -10 4 -10 6 0 11 5 11 10 0 6 -2 10 -4 10 -3 0
-8 -4 -11 -10z"/>
<path d="M4290 3470 c20 -13 33 -13 25 0 -3 6 -14 10 -23 10 -15 0 -15 -2 -2
-10z"/>
<path d="M4090 3435 c0 -8 5 -15 10 -15 6 0 10 7 10 15 0 8 -4 15 -10 15 -5 0
-10 -7 -10 -15z"/>
<path d="M3730 3363 c0 -9 -8 -22 -17 -29 -16 -12 -16 -13 -1 -14 9 0 19 -6
21 -12 3 -7 6 -3 6 9 1 12 6 25 11 28 15 9 12 22 -5 29 -10 3 -15 -1 -15 -11z"/>
<path d="M4003 3316 c-18 -21 -19 -25 -6 -30 21 -9 23 -8 17 9 -4 8 -1 22 6
30 21 25 5 17 -17 -9z"/>
<path d="M3685 3301 c-3 -5 -1 -12 5 -16 5 -3 10 1 10 9 0 18 -6 21 -15 7z"/>
<path d="M4020 3250 c0 -5 5 -10 11 -10 5 0 7 5 4 10 -3 6 -8 10 -11 10 -2 0
-4 -4 -4 -10z"/>
<path d="M4778 3202 c-24 -3 -28 -8 -28 -37 l0 -34 73 0 c92 1 95 1 77 -11
-20 -13 1 -13 34 0 22 8 26 16 26 49 l0 40 -77 -1 c-43 -1 -90 -3 -105 -6z"/>
<path d="M4422 3171 c4 -33 37 -40 183 -40 115 1 125 4 125 47 l0 23 -155 -3
-156 -3 3 -24z"/>
<path d="M4934 3095 c-4 -9 -19 -15 -39 -15 -48 0 -52 -16 -4 -17 21 0 39 3
39 8 0 5 7 9 15 9 8 0 15 7 15 15 0 8 -5 15 -10 15 -6 0 -13 -7 -16 -15z"/>
<path d="M4880 3024 c0 -13 -3 -14 -15 -4 -8 7 -15 8 -15 3 0 -11 44 -33 63
-33 7 0 5 6 -5 14 -10 7 -15 15 -12 18 3 4 1 9 -5 13 -6 3 -11 -1 -11 -11z"/>
<path d="M4020 2921 c0 -5 7 -12 16 -15 24 -9 28 -7 14 9 -14 17 -30 20 -30 6z"/>
<path d="M4083 2913 c-20 -7 -15 -23 7 -23 11 0 20 4 20 9 0 13 -12 19 -27 14z"/>
<path d="M4710 2910 c0 -5 5 -10 11 -10 5 0 7 5 4 10 -3 6 -8 10 -11 10 -2 0
-4 -4 -4 -10z"/>
<path d="M4590 2889 c0 -5 5 -7 10 -4 6 3 10 8 10 11 0 2 -4 4 -10 4 -5 0 -10
-5 -10 -11z"/>
<path d="M1640 304 c0 -8 5 -12 10 -9 6 4 8 11 5 16 -9 14 -15 11 -15 -7z"/>
<path d="M1656 244 c-4 -9 -4 -19 -1 -22 2 -3 7 3 11 12 4 9 4 19 1 22 -2 3
-7 -3 -11 -12z"/>
</g>
</svg>
